<?xml version="1.0" encoding="UTF-8"?>
<svg version="1.1" xmlns="http://www.w3.org/2000/svg" width="500" height="500">
<path d="M0 0 C2 1 2 1 2.97045898 3.75512695 C3.30891846 4.98706787 3.64737793 6.21900879 3.99609375 7.48828125 C4.18560104 8.16679138 4.37510834 8.84530151 4.57035828 9.54437256 C4.98273049 11.02249893 5.39168498 12.50158197 5.79766846 13.98147583 C6.88575549 17.94557732 7.99912037 21.90253575 9.11328125 25.859375 C9.34484924 26.68321182 9.57641724 27.50704865 9.81500244 28.35585022 C12.88734835 39.22587089 16.24433781 50.00950571 19.59545898 60.79614258 C19.93780327 61.90315521 19.93780327 61.90315521 20.2870636 63.03253174 C20.71488992 64.41537304 21.14516487 65.79745999 21.57829285 67.1786499 C23 71.77546628 23 71.77546628 23 74 C23.66829834 73.80365967 24.33659668 73.60731934 25.02514648 73.4050293 C71.99475442 59.69330451 117.29232257 58.68937453 161.40893555 82.31347656 C175.08111481 89.88920328 188.411707 99.5352191 198 112 C194.49307133 111.55212718 192.39466131 109.88636196 189.68969727 107.7121582 C166.13621304 88.89759431 136.58164852 78.27555975 107 74 C106.31574951 73.8983252 105.63149902 73.79665039 104.92651367 73.69189453 C97.71049714 72.74990843 90.45434876 72.75645203 83.1875 72.75 C82.5022525 72.74932526 81.817005 72.74865051 81.11099243 72.74795532 C63.51375371 72.77536894 43.07500226 73.96249887 27 82 C27.5032768 88.41677919 29.16717693 94.12849292 31.16015625 100.2421875 C32 103 32 103 32 105 C42.12159553 106.60770526 51.11531978 105.0592891 61 103.0625 C62.63767563 102.74415003 64.2757066 102.42762329 65.9140625 102.11279297 C68.51214742 101.61304633 71.10988296 101.11184029 73.70654297 100.60473633 C83.47512601 98.6974863 93.26765976 96.92548219 103.06201172 95.15621948 C105.95968087 94.63229013 108.85686673 94.1057679 111.75390625 93.57836914 C113.54426559 93.25273809 115.33462992 92.92713451 117.125 92.6015625 C117.93590088 92.4539296 118.74680176 92.30629669 119.58227539 92.15419006 C121.06232526 91.88567284 122.5429985 91.62055759 124.02441406 91.35968018 C125.8323777 91.03051774 127.63174661 90.6550194 129.4296875 90.27490234 C130.27789062 90.18418457 131.12609375 90.0934668 132 90 C132.66 90.66 133.32 91.32 134 92 C126.33320742 94.80501623 118.64677668 97.54958162 110.9453125 100.2578125 C108.67967785 101.0559622 106.41405314 101.8541401 104.1484375 102.65234375 C100.61993215 103.89476826 97.09130824 105.136854 93.5625 106.37841797 C90.12728067 107.58729977 86.69251944 108.7974758 83.2578125 110.0078125 C82.20256378 110.37866974 81.14731506 110.74952698 80.06008911 111.13162231 C78.58232498 111.65258987 78.58232498 111.65258987 77.07470703 112.18408203 C76.21297882 112.48734406 75.35125061 112.79060608 74.46340942 113.10305786 C71.95301523 114.01710744 69.47513904 114.99478079 67 116 C67.71929687 116.71285156 68.43859375 117.42570312 69.1796875 118.16015625 C71.88466073 120.86798886 74.52176229 123.63125751 77.125 126.4375 C78.39730469 127.79681641 78.39730469 127.79681641 79.6953125 129.18359375 C84.57215744 135.14326358 87.33141209 142.25954679 87.125 150 C85.65973794 159.59080621 80.27797823 169.6674993 73 176 C63.58747375 182.85619948 52.61044485 187.34629612 42 192 C41.67 192.33 41.34 192.66 41 193 C41.32834009 195.00053471 41.74224422 196.98704355 42.1875 198.96484375 C42.47052979 200.2273999 42.75355957 201.48995605 43.04516602 202.79077148 C43.36273754 204.17317681 43.68103281 205.55541604 44 206.9375 C44.15894745 207.63239532 44.3178949 208.32729065 44.48165894 209.04324341 C49.89471432 232.66992552 55.50293174 255.66117338 66.625 277.3125 C67.09260742 278.22749268 67.56021484 279.14248535 68.04199219 280.08520508 C68.49477539 280.94009521 68.94755859 281.79498535 69.4140625 282.67578125 C69.8157666 283.43802002 70.2174707 284.20025879 70.63134766 284.9855957 C72.15350719 287.22593432 73.76103289 288.50230048 76 290 C76.14695312 289.48695313 76.29390625 288.97390625 76.4453125 288.4453125 C77.65167169 284.32705182 78.89654061 280.24191536 80.359375 276.20703125 C89.32641048 251.2194419 91.84211323 224.68687517 95.27709961 198.51074219 C95.39471649 197.61456177 95.51233337 196.71838135 95.6335144 195.79504395 C95.88608823 193.86876101 96.13811027 191.94240567 96.38967896 190.01599121 C96.78069227 187.03227542 97.17693349 184.04929265 97.57421875 181.06640625 C97.75097641 179.70537529 97.75097641 179.70537529 97.93130493 178.31684875 C99.71605329 165.01120375 102.98660501 157.29623892 113.625 148.9375 C116.87278698 147.65547882 118.69296839 147.94456438 122 149 C126.11481772 151.9718128 126.83479431 155.18708593 128 160 C128.21661073 162.30907705 128.3518177 164.62693319 128.4140625 166.9453125 C128.45321777 168.25838379 128.49237305 169.57145508 128.53271484 170.92431641 C128.56444698 172.32452262 128.59518694 173.72475162 128.625 175.125 C128.65953887 176.57861635 128.694208 178.03222962 128.72900391 179.48583984 C128.7958509 182.36026058 128.85568497 185.23473293 128.91210938 188.109375 C128.9845406 191.31566411 129.09538463 194.51490415 129.234375 197.71875 C130.03404022 220.74731131 124.59111212 244.05125064 118 266 C117.77763672 266.74427246 117.55527344 267.48854492 117.32617188 268.25537109 C109.50742142 293.72465896 96.42975628 322.41114293 71.9921875 335.59375 C55.77522625 343.21529837 38.84259301 340.41957391 22.50390625 334.796875 C12.39298005 330.80804519 5.44180006 326.21139061 0.6875 316.25 C-1.16331776 307.50067968 -0.39741524 299.83405068 4 292 C8.1958014 285.77455931 12.63370381 280.97893512 19 277 C19.66 277.33 20.32 277.66 21 278 C20.95359375 279.26714844 20.9071875 280.53429687 20.859375 281.83984375 C20.26016736 296.27014089 20.26016736 296.27014089 27.25 308.375 C35.40822166 313.19576734 43.39643109 314.59855847 52.7109375 312.34375 C58.75650733 310.18594662 63.72628186 306.80932772 68 302 C68.33 301.01 68.66 300.02 69 299 C67.7315625 298.690625 67.7315625 298.690625 66.4375 298.375 C48.04792939 291.01917176 36.76378446 260.54101748 29.48193359 243.61499023 C23.5698925 229.47632155 19.49324258 214.89765217 16 200 C6.45063128 200.25707605 6.45063128 200.25707605 -2 204 C-3.85186421 207.54155952 -5.00339624 211.13816043 -6 215 C-4.68 214.67 -3.36 214.34 -2 214 C-3.02030381 217.15366633 -3.92916573 218.93059432 -6.32421875 221.27734375 C-10.61792212 226.32199868 -11.55635228 233.16058636 -13.125 239.4375 C-18.61656168 260.88642569 -18.61656168 260.88642569 -23.625 263.875 C-27.89396623 266.27382761 -32.11560665 267.13487477 -37 267 C-37.99 266.67 -38.98 266.34 -40 266 C-40.4640625 266.62261719 -40.928125 267.24523437 -41.40625 267.88671875 C-45.78765606 273.74766679 -50.20311123 279.58082774 -54.64770508 285.39404297 C-62.41930058 295.56083397 -70.07496344 305.8049792 -77.62817383 316.13500977 C-78.08087646 316.75045654 -78.5335791 317.36590332 -79 318 C-79.51135498 318.73855225 -80.02270996 319.47710449 -80.54956055 320.23803711 C-81.02820557 320.81948486 -81.50685059 321.40093262 -82 322 C-82.66 322 -83.32 322 -84 322 C-82.3226088 310.95241812 -79.38704042 300.17000988 -76.66015625 289.34765625 C-76.13180507 287.23985953 -75.60376998 285.13198356 -75.07603455 283.02403259 C-73.69116826 277.49596612 -72.30207065 271.96897162 -70.91204834 266.44219971 C-69.50457946 260.84296309 -68.10107537 255.24273304 -66.69726562 249.64257812 C-64.87235994 242.36404441 -63.04650441 235.0857519 -61.21742916 227.80826473 C-60.7556265 225.97011677 -60.29426792 224.13185717 -59.83340549 222.29347324 C-58.89630219 218.55639579 -57.95662439 214.82025388 -56.99435425 211.08956909 C-56.71834381 210.01256744 -56.44233337 208.9355658 -56.15795898 207.82592773 C-55.92890366 206.94355942 -55.69984833 206.0611911 -55.46385193 205.15208435 C-54.89465119 202.87814191 -54.89465119 202.87814191 -55 200 C-56.42388409 198.57596555 -56.42388409 198.57596555 -58.359375 197.3359375 C-59.06320313 196.85382813 -59.76703125 196.37171875 -60.4921875 195.875 C-61.23726563 195.38 -61.98234375 194.885 -62.75 194.375 C-63.47960937 193.87226563 -64.20921875 193.36953125 -64.9609375 192.8515625 C-68.30149859 190.59212846 -70.99963045 188.79718315 -75 188 C-75.26554687 189.21816406 -75.53109375 190.43632812 -75.8046875 191.69140625 C-76.16134345 193.3151294 -76.51812074 194.93882591 -76.875 196.5625 C-77.04902344 197.36236328 -77.22304687 198.16222656 -77.40234375 198.98632812 C-78.44443603 203.71433941 -79.61731723 208.35991592 -81 213 C-81.33 213 -81.66 213 -82 213 C-81.53079589 203.40558492 -80.05805771 194.3583379 -78 185 C-84.82140684 179.19566668 -92.05468813 174.1588669 -99.46386719 169.14526367 C-106.74705266 164.20614912 -113.87866734 159.0761837 -120.99609375 153.90234375 C-125.62182947 150.54025558 -130.29527242 147.25075398 -135 144 C-134.505 143.01 -134.505 143.01 -134 142 C-131.90332031 141.34912109 -131.90332031 141.34912109 -129.078125 140.7734375 C-128.0068335 140.54994629 -126.93554199 140.32645508 -125.83178711 140.09619141 C-124.64979736 139.85819824 -123.46780762 139.62020508 -122.25 139.375 C-119.71465989 138.84984518 -117.17951404 138.32375192 -114.64453125 137.796875 C-113.62879784 137.58745773 -113.62879784 137.58745773 -112.59254456 137.37380981 C-107.0570863 136.23020663 -101.53331227 135.03675155 -96.01171875 133.828125 C-95.17438202 133.64516876 -94.33704529 133.46221252 -93.47433472 133.27371216 C-90.13078503 132.54295772 -86.78731533 131.81187115 -83.44470215 131.07684326 C-81.09786562 130.56137927 -78.75020742 130.04982437 -76.40234375 129.5390625 C-75.69728195 129.38310608 -74.99222015 129.22714966 -74.26579285 129.06646729 C-71.44119386 128.45474425 -68.90070269 128 -66 128 C-66.495 127.2265625 -66.495 127.2265625 -67 126.4375 C-68.37020241 123.09763163 -68.3898913 120.57400356 -68 117 C-64.80497197 113.73445353 -61.32420744 113.22951382 -56.93359375 112.4296875 C-56.25829117 112.30312775 -55.58298859 112.17656799 -54.88722229 112.0461731 C-52.73905405 111.64556745 -50.58855096 111.25979564 -48.4375 110.875 C-46.28353598 110.48004646 -44.13016118 110.08206509 -41.97706604 109.68240356 C-40.02661483 109.32188155 -38.07473841 108.96909558 -36.12280273 108.61669922 C-32.98623432 108.06565444 -32.98623432 108.06565444 -30 107 C-29.01760341 104.35016829 -28.24469297 101.81952594 -27.53564453 99.09399414 C-27.30915222 98.26444717 -27.08265991 97.43490021 -26.8493042 96.58021545 C-26.0984293 93.81829919 -25.36568872 91.05189794 -24.6328125 88.28515625 C-24.11211622 86.35642132 -23.59027906 84.42799406 -23.06735229 82.49986267 C-21.68704573 77.39855555 -20.32191525 72.29330563 -18.95996094 67.18707275 C-17.59002685 62.06053504 -16.20680872 56.93758934 -14.82421875 51.81445312 C-13.26137195 46.02101967 -11.69977916 40.22727931 -10.14871216 34.43067932 C-8.77193119 29.28545954 -7.3896857 24.14174987 -6 19 C-5.64713047 17.69421053 -5.64713047 17.69421053 -5.28713226 16.36204147 C-4.59904185 13.82411292 -3.90572385 11.28767766 -3.21044922 8.75170898 C-3.00201448 7.98218682 -2.79357975 7.21266466 -2.57882881 6.41982365 C-1.11533272 1.11533272 -1.11533272 1.11533272 0 0 Z M0 64 C-3.37558682 72.35859593 -6.28345904 80.90231474 -6 90 C-4.18146744 89.07425608 -2.37031117 88.13401005 -0.5625 87.1875 C0.44683594 86.66542969 1.45617187 86.14335938 2.49609375 85.60546875 C5.28691218 84.18581516 5.28691218 84.18581516 6 81 C5.68360069 79.04445823 5.68360069 79.04445823 5.00390625 76.98828125 C4.77509766 76.23095703 4.54628906 75.47363281 4.31054688 74.69335938 C4.06369141 73.90767578 3.81683594 73.12199219 3.5625 72.3125 C3.31951172 71.51521484 3.07652344 70.71792969 2.82617188 69.89648438 C2.22520262 67.92860466 1.6136095 65.96397505 1 64 C0.67 64 0.34 64 0 64 Z M-3.1875 95.1875 C-4.14946289 95.76854492 -4.14946289 95.76854492 -5.13085938 96.36132812 C-7.24349024 97.66138979 -7.24349024 97.66138979 -10 100 C-10.33 101.65 -10.66 103.3 -11 105 C-3.41 104.67 4.18 104.34 12 104 C10.52549385 95.64676167 10.52549385 95.64676167 8 91 C3.215278 91 0.68546014 92.68613066 -3.1875 95.1875 Z M22.6796875 129.66015625 C21 130 21 130 19 129 C16.90178785 129.39938767 16.90178785 129.39938767 15 130 C14.88108398 130.80945068 14.88108398 130.80945068 14.75976562 131.63525391 C12.63737101 145.69172103 9.52715088 159.28917764 5.73046875 172.96923828 C5.39273438 174.18724121 5.055 175.40524414 4.70703125 176.66015625 C4.4025708 177.73918213 4.09811035 178.81820801 3.78442383 179.92993164 C3.0148423 182.94191039 2.46411673 185.92749538 2 189 C7.90989452 189.38203804 12.18043787 188.16849395 17.625 185.9375 C18.41406738 185.62022949 19.20313477 185.30295898 20.01611328 184.97607422 C31.78972006 180.14189388 42.07042184 174.01041599 52 166 C52.83789062 165.34 53.67578125 164.68 54.5390625 164 C61.58514069 158.15576123 67.12889169 151.06842171 68.2734375 141.78125 C68.54367483 136.82033332 68.54367483 136.82033332 66.0625 132.6875 C51.19814072 124.49693468 38.89369163 125.047081 22.6796875 129.66015625 Z M-15.625 135.875 C-16.40101563 136.03742188 -17.17703125 136.19984375 -17.9765625 136.3671875 C-20.2000611 136.89085294 -20.2000611 136.89085294 -22 139 C-24.3460971 139.6009588 -26.64403569 140.10275906 -29.01953125 140.55078125 C-30.44870133 140.83983491 -31.87773367 141.12957026 -33.30664062 141.41992188 C-35.55659754 141.86863891 -37.80726307 142.3114997 -40.06079102 142.74194336 C-42.23830324 143.16127533 -44.40993642 143.60434842 -46.58203125 144.05078125 C-47.24991165 144.17181717 -47.91779205 144.29285309 -48.60591125 144.41755676 C-54.61169783 145.68074008 -57.49943347 148.7345026 -60.80078125 153.71875 C-61.29964844 154.6365625 -61.79851562 155.554375 -62.3125 156.5 C-62.82425781 157.4178125 -63.33601563 158.335625 -63.86328125 159.28125 C-65.12733971 162.30456508 -65.74772818 163.79184192 -65 167 C-62.83704784 168.99727923 -60.85407863 170.55538225 -58.4375 172.1875 C-57.77161865 172.65583252 -57.1057373 173.12416504 -56.41967773 173.60668945 C-54.2934402 175.09219085 -52.15009921 176.54928429 -50 178 C-49.27973633 178.48855469 -48.55947266 178.97710937 -47.81738281 179.48046875 C-43.56786579 182.35587891 -39.29429584 185.1919569 -35 188 C-35.5672622 196.06976233 -37.52406305 203.71886268 -39.52349854 211.52612305 C-40.13326207 213.90726357 -40.73510297 216.29029728 -41.33544922 218.67382812 C-43.23761176 226.20451381 -45.18084279 233.72304813 -47.1875 241.2265625 C-47.5160498 242.46293457 -47.84459961 243.69930664 -48.18310547 244.97314453 C-48.79812086 247.27602488 -49.42176821 249.57662211 -50.05517578 251.87451172 C-50.3282959 252.89561035 -50.60141602 253.91670898 -50.8828125 254.96875 C-51.12402832 255.84982422 -51.36524414 256.73089844 -51.61376953 257.63867188 C-52.01952347 260.11936219 -51.79802105 261.63944416 -51 264 C-42.34802813 256.65400359 -38.52455276 251.20811946 -36.5625 239.75 C-35.98351718 236.84869466 -35.35125959 233.96080589 -34.703125 231.07421875 C-34.52074783 230.25996933 -34.33837067 229.44571991 -34.15046692 228.60679626 C-30.89963905 214.7006333 -26.20526863 201.14073291 -21.8125 187.5625 C-21.5896294 186.87328964 -21.3667588 186.18407928 -21.13713455 185.47398376 C-20.69251122 184.09906479 -20.24784975 182.72415815 -19.80314922 181.34926414 C-18.72844818 178.02613232 -17.65455997 174.70273986 -16.58203125 171.37890625 C-16.37629549 170.74144344 -16.17055973 170.10398064 -15.95858955 169.44720078 C-13.48680511 161.77668515 -11.0666937 154.09891109 -8.88671875 146.33984375 C-8.58529716 145.27788536 -8.58529716 145.27788536 -8.27778625 144.19447327 C-7.39545366 140.95738741 -7 138.39532307 -7 135 C-10.18075079 135 -12.57216383 135.21133996 -15.625 135.875 Z M-76.9375 150.5 C-77.96327148 150.71462891 -77.96327148 150.71462891 -79.00976562 150.93359375 C-80.67449514 151.28283771 -82.33744875 151.64052946 -84 152 C-84 152.66 -84 153.32 -84 154 C-81.92802914 155.6640793 -79.87185469 157.18561107 -77.6875 158.6875 C-77.09259766 159.11611328 -76.49769531 159.54472656 -75.88476562 159.98632812 C-74.31288299 161.07698635 -72.65921576 162.04744898 -71 163 C-67.72266203 162.28600636 -67.72266203 162.28600636 -66.39453125 159.05859375 C-65.87246094 157.86363281 -65.35039063 156.66867188 -64.8125 155.4375 C-64.01779297 153.64119141 -64.01779297 153.64119141 -63.20703125 151.80859375 C-62.80871094 150.88175781 -62.41039063 149.95492187 -62 149 C-67.23419357 148.83664415 -71.86306192 149.39447963 -76.9375 150.5 Z " fill="#034AA9" transform="translate(181,37)"/>
<path d="M0 0 C4.11481772 2.9718128 4.83479431 6.18708593 6 11 C6.21661073 13.30907705 6.3518177 15.62693319 6.4140625 17.9453125 C6.45321777 19.25838379 6.49237305 20.57145508 6.53271484 21.92431641 C6.56444698 23.32452262 6.59518694 24.72475162 6.625 26.125 C6.65953887 27.57861635 6.694208 29.03222962 6.72900391 30.48583984 C6.7958509 33.36026058 6.85568497 36.23473293 6.91210938 39.109375 C6.9845406 42.31566411 7.09538463 45.51490415 7.234375 48.71875 C8.03404022 71.74731131 2.59111212 95.05125064 -4 117 C-4.33354492 118.11640869 -4.33354492 118.11640869 -4.67382812 119.25537109 C-12.49257858 144.72465896 -25.57024372 173.41114293 -50.0078125 186.59375 C-66.22477375 194.21529837 -83.15740699 191.41957391 -99.49609375 185.796875 C-109.60701995 181.80804519 -116.55819994 177.21139061 -121.3125 167.25 C-123.16331776 158.50067968 -122.39741524 150.83405068 -118 143 C-113.8041986 136.77455931 -109.36629619 131.97893512 -103 128 C-102.34 128.33 -101.68 128.66 -101 129 C-101.06960937 130.90072266 -101.06960937 130.90072266 -101.140625 132.83984375 C-101.73983264 147.27014089 -101.73983264 147.27014089 -94.75 159.375 C-86.59177834 164.19576734 -78.60356891 165.59855847 -69.2890625 163.34375 C-59.3675294 159.80252588 -53.1760696 152.93470027 -48 144 C-46.26740805 140.30047062 -44.83443621 136.5246539 -43.4375 132.6875 C-43.07720703 131.75099609 -42.71691406 130.81449219 -42.34570312 129.84960938 C-35.94643612 112.6068242 -32.93955763 94.7702973 -30.4375 76.625 C-30.13659475 74.50800506 -29.83474532 72.39114413 -29.53198242 70.27441406 C-28.22272265 61.06895847 -26.96254271 51.8585664 -25.8046875 42.6328125 C-25.71689529 41.94148224 -25.62910309 41.25015198 -25.53865051 40.53787231 C-25.14778104 37.45480605 -24.7693937 34.37150697 -24.41772461 31.28369141 C-22.71698807 17.45882013 -19.40461832 8.60362868 -8.375 -0.0625 C-5.12721302 -1.34452118 -3.30703161 -1.05543562 0 0 Z " fill="#5270FA" transform="translate(303,186)"/>
<path d="M0 0 C2 2.25 2 2.25 4 5 C9.74310797 10.58788883 16.15267656 10.16509629 23.734375 10.1015625 C30.1655522 9.90154981 36.58226335 9.45093256 43 9 C42.67 9.99 42.34 10.98 42 12 C39.64439303 12.72514272 37.45471814 13.24142219 35.04296875 13.68359375 C33.60611653 13.97459328 32.16926768 14.26560944 30.73242188 14.55664062 C28.46196118 14.99935226 26.19057402 15.43691086 23.91870117 15.87231445 C21.72825386 16.29684934 19.54203871 16.73958808 17.35546875 17.18359375 C16.67929001 17.3066539 16.00311127 17.42971405 15.30644226 17.5565033 C11.0331656 18.42949038 8.73402278 19.59594911 6 23 C4.25587968 25.61353131 4.25587968 25.61353131 2.75 28.4375 C2.22921875 29.36433594 1.7084375 30.29117188 1.171875 31.24609375 C-0.49621964 35.03130973 -0.49621964 35.03130973 0 39 C2.31793071 41.27777055 4.97197073 42.98056885 7.6875 44.75 C8.45247803 45.26788086 9.21745605 45.78576172 10.00561523 46.31933594 C11.57121333 47.37838346 13.14131915 48.43079717 14.71582031 49.4765625 C18.03089539 51.68755742 21.29462174 53.97014975 24.5625 56.25 C26.37442794 57.50082908 28.18668721 58.75117937 30 60 C29.37647176 68.87019211 27.07332278 77.29542078 24.875 85.875 C24.47029654 87.47375351 24.06608594 89.07263186 23.66235352 90.67163086 C21.75460491 98.20959564 19.81404375 105.73884997 17.84765625 113.26171875 C17.52361816 114.50260254 17.19958008 115.74348633 16.86572266 117.02197266 C16.2589079 119.3365512 15.64807213 121.65008027 15.03271484 123.96240234 C14.62786865 125.49888428 14.62786865 125.49888428 14.21484375 127.06640625 C13.86087524 128.3958728 13.86087524 128.3958728 13.49975586 129.75219727 C12.89148425 132.10430093 12.89148425 132.10430093 13 135 C13.70576172 134.24203125 13.70576172 134.24203125 14.42578125 133.46875 C15.04839844 132.8190625 15.67101562 132.169375 16.3125 131.5 C17.23482422 130.52546875 17.23482422 130.52546875 18.17578125 129.53125 C20 128 20 128 23 128 C24.17885181 130.94712951 24.91057975 132.88171341 25 136 C23.97705078 138.11987305 23.97705078 138.11987305 22.4453125 140.26171875 C21.88924316 141.04587158 21.33317383 141.83002441 20.76025391 142.63793945 C18.06001749 146.26134962 15.30950167 149.8356793 12.5 153.375 C7.45234061 159.79707905 2.51806524 166.28804546 -2.3125 172.875 C-2.89354492 173.66608154 -3.47458984 174.45716309 -4.07324219 175.2722168 C-6.20474182 178.17734259 -8.33413949 181.08391023 -10.45263672 183.99853516 C-11.7131988 185.73209172 -12.98080732 187.46025876 -14.25 189.1875 C-14.93578125 190.12980469 -15.6215625 191.07210937 -16.328125 192.04296875 C-16.87984375 192.68878906 -17.4315625 193.33460938 -18 194 C-18.66 194 -19.32 194 -20 194 C-18.3226088 182.95241812 -15.38704042 172.17000988 -12.66015625 161.34765625 C-12.13180507 159.23985953 -11.60376998 157.13198356 -11.07603455 155.02403259 C-9.69116826 149.49596612 -8.30207065 143.96897162 -6.91204834 138.44219971 C-5.50457946 132.84296309 -4.10107537 127.24273304 -2.69726562 121.64257812 C-0.87235994 114.36404441 0.95349559 107.0857519 2.78257084 99.80826473 C3.2443735 97.97011677 3.70573208 96.13185717 4.16659451 94.29347324 C5.10369781 90.55639579 6.04337561 86.82025388 7.00564575 83.08956909 C7.41966141 81.47406662 7.41966141 81.47406662 7.84204102 79.82592773 C8.07109634 78.94355942 8.30015167 78.0611911 8.53614807 77.15208435 C9.10534881 74.87814191 9.10534881 74.87814191 9 72 C7.57611591 70.57596555 7.57611591 70.57596555 5.640625 69.3359375 C4.93679687 68.85382813 4.23296875 68.37171875 3.5078125 67.875 C2.39019531 67.1325 2.39019531 67.1325 1.25 66.375 C0.52039063 65.87226563 -0.20921875 65.36953125 -0.9609375 64.8515625 C-4.30149859 62.59212846 -6.99963045 60.79718315 -11 60 C-11.26554687 61.21816406 -11.53109375 62.43632812 -11.8046875 63.69140625 C-12.16134345 65.3151294 -12.51812074 66.93882591 -12.875 68.5625 C-13.04902344 69.36236328 -13.22304687 70.16222656 -13.40234375 70.98632812 C-14.44443603 75.71433941 -15.61731723 80.35991592 -17 85 C-17.33 85 -17.66 85 -18 85 C-17.53079589 75.40558492 -16.05805771 66.3583379 -14 57 C-20.82140684 51.19566668 -28.05468813 46.1588669 -35.46386719 41.14526367 C-42.74705266 36.20614912 -49.87866734 31.0761837 -56.99609375 25.90234375 C-61.62182947 22.54025558 -66.29527242 19.25075398 -71 16 C-70.67 15.34 -70.34 14.68 -70 14 C-67.90332031 13.34912109 -67.90332031 13.34912109 -65.078125 12.7734375 C-63.47142944 12.43820068 -63.47142944 12.43820068 -61.83227539 12.09619141 C-60.65012451 11.85819824 -59.46797363 11.62020508 -58.25 11.375 C-56.37542425 10.98717383 -54.50085757 10.59930179 -52.62660217 10.20993042 C-51.27910306 9.93021966 -49.93138887 9.65154332 -48.58348083 9.37380981 C-43.07325209 8.23527154 -37.57660997 7.03973511 -32.08203125 5.828125 C-30.40267871 5.45910416 -28.72331676 5.09012616 -27.04394531 4.72119141 C-24.56062167 4.1754373 -22.0776312 3.6283622 -19.59558105 3.07684326 C-17.26396589 2.55944586 -14.93099794 2.04860834 -12.59765625 1.5390625 C-11.90291702 1.38310608 -11.2081778 1.22714966 -10.49238586 1.06646729 C-6.95713341 0.30066045 -3.61636584 -0.39830531 0 0 Z M-12.9375 22.5 C-13.96327148 22.71462891 -13.96327148 22.71462891 -15.00976562 22.93359375 C-16.67449514 23.28283771 -18.33744875 23.64052946 -20 24 C-20 24.66 -20 25.32 -20 26 C-17.92802914 27.6640793 -15.87185469 29.18561107 -13.6875 30.6875 C-13.09259766 31.11611328 -12.49769531 31.54472656 -11.88476562 31.98632812 C-10.31288299 33.07698635 -8.65921576 34.04744898 -7 35 C-3.72266203 34.28600636 -3.72266203 34.28600636 -2.39453125 31.05859375 C-1.87246094 29.86363281 -1.35039063 28.66867188 -0.8125 27.4375 C-0.01779297 25.64119141 -0.01779297 25.64119141 0.79296875 23.80859375 C1.19128906 22.88175781 1.58960937 21.95492187 2 21 C-3.23419357 20.83664415 -7.86306192 21.39447963 -12.9375 22.5 Z " fill="#FCDE5D" transform="translate(117,165)"/>
<path d="M0 0 C2 1 2 1 2.97045898 3.75512695 C3.30891846 4.98706787 3.64737793 6.21900879 3.99609375 7.48828125 C4.18560104 8.16679138 4.37510834 8.84530151 4.57035828 9.54437256 C4.98273049 11.02249893 5.39168498 12.50158197 5.79766846 13.98147583 C6.88575549 17.94557732 7.99912037 21.90253575 9.11328125 25.859375 C9.34484924 26.68321182 9.57641724 27.50704865 9.81500244 28.35585022 C12.88734835 39.22587089 16.24433781 50.00950571 19.59545898 60.79614258 C19.93780327 61.90315521 19.93780327 61.90315521 20.2870636 63.03253174 C20.71488992 64.41537304 21.14516487 65.79745999 21.57829285 67.1786499 C23 71.77546628 23 71.77546628 23 74 C23.66829834 73.80365967 24.33659668 73.60731934 25.02514648 73.4050293 C71.99475442 59.69330451 117.29232257 58.68937453 161.40893555 82.31347656 C175.08111481 89.88920328 188.411707 99.5352191 198 112 C194.49307133 111.55212718 192.39466131 109.88636196 189.68969727 107.7121582 C166.13621304 88.89759431 136.58164852 78.27555975 107 74 C106.31574951 73.8983252 105.63149902 73.79665039 104.92651367 73.69189453 C97.71049714 72.74990843 90.45434876 72.75645203 83.1875 72.75 C82.5022525 72.74932526 81.817005 72.74865051 81.11099243 72.74795532 C63.51375371 72.77536894 43.07500226 73.96249887 27 82 C27.5032768 88.41677919 29.16717693 94.12849292 31.16015625 100.2421875 C32 103 32 103 32 105 C29.60408962 105.02712351 27.20849043 105.0468982 24.8125 105.0625 C24.13896484 105.07087891 23.46542969 105.07925781 22.77148438 105.08789062 C18.94676622 105.10654779 15.79711284 104.75942257 12 104 C10.68 100.04 9.36 96.08 8 92 C3.4102285 92.9179543 0.84749921 93.96008818 -3.125 96.25 C-4.15882813 96.83265625 -5.19265625 97.4153125 -6.2578125 98.015625 C-9.14211453 99.78339933 -9.14211453 99.78339933 -10.32421875 102.62109375 C-12.26857691 105.38126653 -12.83491342 105.4705563 -16.01171875 106.14453125 C-17.56697716 106.38940172 -19.12598047 106.61138551 -20.6875 106.8125 C-21.88342773 106.99329102 -21.88342773 106.99329102 -23.10351562 107.17773438 C-25.0661594 107.47154332 -27.03280199 107.73841583 -29 108 C-28.41192456 102.46746467 -27.43177645 97.29738843 -25.94628906 91.94189453 C-25.73959595 91.17960037 -25.53290283 90.41730621 -25.31994629 89.63191223 C-24.64037271 87.13076248 -23.95307396 84.63180802 -23.265625 82.1328125 C-22.78532118 80.37145466 -22.30549161 78.60996744 -21.82611084 76.84835815 C-20.5637453 72.21468358 -19.29475723 67.58284779 -18.02441406 62.95135498 C-16.74908662 58.29683199 -15.48038505 53.64050432 -14.2109375 48.984375 C-11.6997959 39.78021336 -9.18459165 30.57720122 -6.65278625 21.37870026 C-5.9632956 18.86625213 -5.27933765 16.35233208 -4.59558105 13.83831787 C-4.14164103 12.17977649 -3.68758422 10.52126707 -3.23339844 8.86279297 C-3.02358463 8.08657152 -2.81377083 7.31035007 -2.59759903 6.51060677 C-1.11341068 1.11341068 -1.11341068 1.11341068 0 0 Z M0 64 C-3.37558682 72.35859593 -6.28345904 80.90231474 -6 90 C-4.18146744 89.07425608 -2.37031117 88.13401005 -0.5625 87.1875 C0.44683594 86.66542969 1.45617187 86.14335938 2.49609375 85.60546875 C5.28691218 84.18581516 5.28691218 84.18581516 6 81 C5.68360069 79.04445823 5.68360069 79.04445823 5.00390625 76.98828125 C4.77509766 76.23095703 4.54628906 75.47363281 4.31054688 74.69335938 C4.06369141 73.90767578 3.81683594 73.12199219 3.5625 72.3125 C3.31951172 71.51521484 3.07652344 70.71792969 2.82617188 69.89648438 C2.22520262 67.92860466 1.6136095 65.96397505 1 64 C0.67 64 0.34 64 0 64 Z " fill="#FBDD5D" transform="translate(181,37)"/>
<path d="M0 0 C1.68997323 1.64302953 3.35216394 3.31471312 5 5 C5.70125 5.70125 6.4025 6.4025 7.125 7.125 C10.90638293 12.9231205 13.00029187 20.43908434 11.81640625 27.35546875 C7.58939447 41.04775093 0.81560866 50.280718 -11.9453125 57.17578125 C-18.82210216 60.75261597 -25.90377641 63.88762123 -33 67 C-33.33 67.33 -33.66 67.66 -34 68 C-33.67165991 70.00053471 -33.25775578 71.98704355 -32.8125 73.96484375 C-32.52947021 75.2273999 -32.24644043 76.48995605 -31.95483398 77.79077148 C-31.63726246 79.17317681 -31.31896719 80.55541604 -31 81.9375 C-30.84105255 82.63239532 -30.6821051 83.32729065 -30.51834106 84.04324341 C-22.47916649 126.7867516 -22.47916649 126.7867516 -1.34057617 163.62573242 C-0.89818604 164.07924072 -0.4557959 164.53274902 0 165 C-0.12128398 169.48750726 -2.43821918 172.44656208 -5 176 C-5.33 175.34 -5.66 174.68 -6 174 C-7.299375 173.62875 -7.299375 173.62875 -8.625 173.25 C-24.64122317 167.31806549 -34.87626974 141.95750495 -41.640625 127.41015625 C-49.4997026 110.03346266 -55.24374362 92.88277398 -58 74 C-61.63 73.67 -65.26 73.34 -69 73 C-68.67 71.35 -68.34 69.7 -68 68 C-67.01 67.505 -67.01 67.505 -66 67 C-65.505 66.01 -65.505 66.01 -65 65 C-63.125 64.1875 -63.125 64.1875 -61 64 C-59.375 65.4375 -59.375 65.4375 -58 67 C-57.34 67 -56.68 67 -56 67 C-56 66.01 -56 65.02 -56 64 C-56.66 63.67 -57.32 63.34 -58 63 C-54.79663178 60.16625119 -52.21912747 59.4794463 -48 59 C-48 58.01 -48 57.02 -48 56 C-47.20078125 55.59910156 -46.4015625 55.19820312 -45.578125 54.78515625 C-37.4189704 50.56193186 -30.18954209 45.76607465 -23 40 C-22.23558594 39.41347656 -21.47117188 38.82695312 -20.68359375 38.22265625 C-14.6812489 33.38205557 -9.37836024 26.78007781 -8 19 C-7.88688035 17.48209216 -7.82537701 15.95956257 -7.8125 14.4375 C-7.79832031 13.67308594 -7.78414062 12.90867188 -7.76953125 12.12109375 C-7.8676625 9.69846497 -7.8676625 9.69846497 -10 7 C-7.33333333 8.33333333 -4.66666667 9.66666667 -2 11 C-1.67 10.01 -1.34 9.02 -1 8 C1.97 8.495 1.97 8.495 5 9 C4.6390625 8.51789063 4.278125 8.03578125 3.90625 7.5390625 C3.21015625 6.59160156 3.21015625 6.59160156 2.5 5.625 C1.80390625 4.68527344 1.80390625 4.68527344 1.09375 3.7265625 C0 2 0 2 0 0 Z M-74 71 C-71.525 71.99 -71.525 71.99 -69 73 C-69.33 73.66 -69.66 74.32 -70 75 C-72.475 74.01 -72.475 74.01 -75 73 C-74.67 72.34 -74.34 71.68 -74 71 Z " fill="#0349A9" transform="translate(256,162)"/>
<path d="M0 0 C0.33 0 0.66 0 1 0 C1.30597739 7.23151443 0.2517129 13.44939981 -1.5625 20.4375 C-1.83352539 21.49155029 -2.10455078 22.54560059 -2.38378906 23.6315918 C-8.23577443 45.68354464 -18.02598514 65.94647435 -32 84 C-32.71671875 84.93972656 -33.4334375 85.87945312 -34.171875 86.84765625 C-61.54896776 121.56860419 -102.72268281 143.67657773 -146.4230957 149.3125 C-177.02874929 152.68270273 -207.36608785 147.52865235 -235 134 C-235.62036133 133.70399902 -236.24072266 133.40799805 -236.87988281 133.10302734 C-244.60957965 129.38288464 -251.66698266 125.04461202 -258.5625 119.9375 C-259.21734375 119.45514893 -259.8721875 118.97279785 -260.546875 118.47583008 C-264.96874117 115.09503987 -268.53981555 111.35396496 -272 107 C-267.03586144 108.72752022 -262.73984866 111.44540613 -258.25 114.125 C-240.97771586 124.23960979 -223.37147563 131.80044428 -203.8125 136.25 C-203.14935791 136.40114258 -202.48621582 136.55228516 -201.80297852 136.70800781 C-189.35946075 139.35537406 -177.01518705 140.38414646 -164.3125 140.3125 C-163.61756439 140.31034485 -162.92262878 140.3081897 -162.20663452 140.30596924 C-119.24365478 140.09335119 -79.87902662 123.82728866 -49 94 C-48.07445312 93.13761719 -47.14890625 92.27523437 -46.1953125 91.38671875 C-23.84787112 70.02053896 -10.51603259 41.59437832 -3 12 C-2.82210938 11.31212402 -2.64421875 10.62424805 -2.4609375 9.91552734 C-1.60837406 6.61776459 -0.78244681 3.3151036 0 0 Z " fill="#0849A2" transform="translate(430,293)"/>
<path d="M0 0 C0.763125 0.20625 1.52625 0.4125 2.3125 0.625 C3.3025 3.595 3.3025 3.595 4.3125 6.625 C4.8075 6.13 5.3025 5.635 5.8125 5.125 C9.59976141 2.85264315 11.92427849 3.06776552 16.3125 3.625 C18.49880633 6.23446239 19.24042181 8.40876542 20.3125 11.625 C20.86679687 11.13128906 21.42109375 10.63757813 21.9921875 10.12890625 C22.71664062 9.48824219 23.44109375 8.84757812 24.1875 8.1875 C25.26644531 7.23037109 25.26644531 7.23037109 26.3671875 6.25390625 C28.8007374 4.21617471 29.94209513 3.6661561 33.125 3.3125 C37.16461856 3.70854104 38.60979155 4.61341058 41.3125 7.625 C43.78360173 14.45686949 40.89577196 21.13829818 38.3125 27.625 C36.37175947 31.41855107 34.71172288 34.15859237 30.5 35.5625 C29.4171875 35.5934375 29.4171875 35.5934375 28.3125 35.625 C25.51304376 31.69998919 25.00334561 29.38996785 25.5625 24.625 C25.67078125 23.614375 25.7790625 22.60375 25.890625 21.5625 C26.27441754 18.89016679 26.74960089 16.26480274 27.3125 13.625 C26.58804688 14.4190625 25.86359375 15.213125 25.1171875 16.03125 C24.14144971 17.06328035 23.16484091 18.09448769 22.1875 19.125 C21.713125 19.64964844 21.23875 20.17429687 20.75 20.71484375 C18.16955841 23.39989784 16.75439653 24.57067702 13.0078125 25.03125 C10.3125 24.625 10.3125 24.625 9.3125 23.625 C8.94489269 21.29682036 8.61008419 18.9631615 8.3125 16.625 C5.59066609 19.26906723 3.13996012 21.83054062 0.875 24.875 C-1.6875 27.625 -1.6875 27.625 -4.9375 28.5625 C-6.29875 28.5934375 -6.29875 28.5934375 -7.6875 28.625 C-8.0175 28.295 -8.3475 27.965 -8.6875 27.625 C-8.37520798 21.17096482 -6.897988 15.90847676 -4.52734375 9.91015625 C-3.57251276 7.7178944 -3.57251276 7.7178944 -3.6875 5.625 C-4.3475 5.955 -5.0075 6.285 -5.6875 6.625 C-7.68710012 6.664992 -9.68797242 6.66846799 -11.6875 6.625 C-11.44 7.3675 -11.44 7.3675 -11.1875 8.125 C-9.9328612 14.39819401 -10.23305266 19.27987984 -13.36328125 24.859375 C-16.09219935 28.49793247 -19.34903028 30.25101679 -23.8125 30.96484375 C-26.82836417 31.10344045 -29.09677042 30.99420599 -31.6875 29.375 C-32.6875 27.625 -32.6875 27.625 -32.6875 23.625 C-33.4609375 24.058125 -34.234375 24.49125 -35.03125 24.9375 C-45.79811618 30.69404232 -45.79811618 30.69404232 -52.6875 29.625 C-57.29773713 27.94049028 -60.28138647 25.95600436 -62.6875 21.625 C-62.7927066 15.20739746 -60.84837324 10.50997326 -56.6875 5.625 C-52.23118173 1.58823332 -47.77425307 1.19818706 -41.921875 1.2890625 C-39.6875 1.625 -39.6875 1.625 -36.6875 3.625 C-37.0175 4.615 -37.3475 5.605 -37.6875 6.625 C-39.8671875 7.46875 -39.8671875 7.46875 -42.5625 8.125 C-46.14187536 9.00158172 -48.42056427 9.63066745 -50.6875 12.625 C-51.46751645 14.5550204 -51.46751645 14.5550204 -51.875 16.625 C-52.03355469 17.305625 -52.19210937 17.98625 -52.35546875 18.6875 C-52.77195433 20.79019179 -52.77195433 20.79019179 -52.6875 23.625 C-45.61074617 24.29261829 -39.47013018 22.95475638 -33.6875 18.625 C-32.41659022 16.08318044 -31.85724572 13.92965172 -31.4453125 11.125 C-30.31308954 7.38983149 -28.82945391 5.94539708 -25.6875 3.625 C-22.33190405 2.8016803 -19.00610515 2.60795104 -15.5625 2.4375 C-13.76775365 2.32644528 -11.97343066 2.20825762 -10.1796875 2.08203125 C-8.99415283 2.0197937 -8.99415283 2.0197937 -7.78466797 1.95629883 C-4.46880123 1.43247681 -3.51614162 -0.49062441 0 0 Z M-21.6875 8.625 C-24.5227113 14.1772888 -25.06702295 18.42612515 -24.6875 24.625 C-24.0275 24.955 -23.3675 25.285 -22.6875 25.625 C-18.74801882 22.01303688 -18.74801882 22.01303688 -17.58984375 17.0234375 C-17.60144531 16.02570313 -17.61304688 15.02796875 -17.625 14 C-17.63853516 12.49566406 -17.63853516 12.49566406 -17.65234375 10.9609375 C-17.66394531 10.19007813 -17.67554688 9.41921875 -17.6875 8.625 C-19.0075 8.625 -20.3275 8.625 -21.6875 8.625 Z " fill="#0849A1" transform="translate(342.6875,356.375)"/>
<path d="M0 0 C5.48400526 4.63794555 10.61437295 9.29868484 15 15 C11.49307133 14.55212718 9.39466131 12.88636196 6.68969727 10.7121582 C-16.86378696 -8.10240569 -46.41835148 -18.72444025 -76 -23 C-77.02637573 -23.15251221 -77.02637573 -23.15251221 -78.07348633 -23.30810547 C-85.28950286 -24.25009157 -92.54565124 -24.24354797 -99.8125 -24.25 C-100.4977475 -24.25067474 -101.182995 -24.25134949 -101.88900757 -24.25204468 C-121.09909877 -24.2221185 -138.7798026 -21.07339913 -157 -15 C-158.5625 -16.1875 -158.5625 -16.1875 -160 -18 C-159.58984375 -20.61328125 -159.58984375 -20.61328125 -159 -23 C-104.0813508 -39.90071323 -46.18902068 -37.93396167 0 0 Z " fill="#0549A6" transform="translate(364,134)"/>
<path d="M0 0 C-7.66679258 2.80501623 -15.35322332 5.54958162 -23.0546875 8.2578125 C-25.32032215 9.0559622 -27.58594686 9.8541401 -29.8515625 10.65234375 C-33.38006785 11.89476826 -36.90869176 13.136854 -40.4375 14.37841797 C-43.87271933 15.58729977 -47.30748056 16.7974758 -50.7421875 18.0078125 C-51.79743622 18.37866974 -52.85268494 18.74952698 -53.93991089 19.13162231 C-54.92508698 19.47893402 -55.91026306 19.82624573 -56.92529297 20.18408203 C-57.78702118 20.48734406 -58.64874939 20.79060608 -59.53659058 21.10305786 C-61.26441695 21.7321698 -62.97460346 22.41088311 -64.66897583 23.12521362 C-70.25775924 25.22257136 -75.82781709 21.44521133 -80.91601562 19.171875 C-83.91164465 17.85055971 -86.78091034 16.6422124 -90 16 C-90 15.34 -90 14.68 -90 14 C-84.58352055 12.99898455 -79.1668331 11.99909996 -73.75 11 C-72.91953156 10.84682312 -72.08906311 10.69364624 -71.23342896 10.53582764 C-54.8812393 7.52101149 -38.5224241 4.54311517 -22.16113281 1.578125 C-21.25212723 1.41323578 -20.34312164 1.24834656 -19.40657043 1.07846069 C-17.70586677 0.7699812 -16.00509604 0.46187113 -14.304245 0.15420532 C-13.54505264 0.01646698 -12.78586029 -0.12127136 -12.00366211 -0.26318359 C-11.30361053 -0.38763855 -10.60355896 -0.51209351 -9.8822937 -0.64031982 C-8.28917262 -0.94474313 -6.71115581 -1.3266377 -5.13891602 -1.72509766 C-3 -2 -3 -2 0 0 Z " fill="#FADD62" transform="translate(315,129)"/>
<path d="M0 0 C4.96413856 1.72752022 9.26015134 4.44540613 13.75 7.125 C35.57832869 19.90761898 57.98155103 28.02694442 83 32 C83 32.33 83 32.66 83 33 C73.44947153 33.72843014 65.09838514 31.5571371 56 29 C55.505 30.485 55.505 30.485 55 32 C55.99 32.99 56.98 33.98 58 35 C50.85695319 33.07407538 44.28150026 30.52955177 37.625 27.3125 C36.7074292 26.87115723 35.7898584 26.42981445 34.84448242 25.97509766 C27.78412372 22.51449232 21.29808449 18.73310592 15 14 C14.08734375 13.319375 13.1746875 12.63875 12.234375 11.9375 C7.54876915 8.3205411 3.55381012 4.73841349 0 0 Z " fill="#0B499E" transform="translate(158,400)"/>
<path d="M0 0 C20.3183194 5.7033879 41.19643846 20.259193 54 37 C50.49223891 36.55202087 48.39371481 34.88473766 45.68725586 32.71142578 C38.13958522 26.67708048 29.99958593 22.0727066 21.4375 17.625 C19.77158813 16.75161987 19.77158813 16.75161987 18.07202148 15.8605957 C10.23102568 11.86095687 2.33807058 8.77123545 -6 6 C-6 5.67 -6 5.34 -6 5 C-2.05272412 4.82057837 0.5980513 4.90649311 4 7 C4 6.34 4 5.68 4 5 C2.68 4.67 1.36 4.34 0 4 C0 2.68 0 1.36 0 0 Z " fill="#0A499D" transform="translate(325,112)"/>
<path d="M0 0 C1.32 0 2.64 0 4 0 C4 1.98 4 3.96 4 6 C3.39671875 6.05027344 2.7934375 6.10054688 2.171875 6.15234375 C-0.25378501 6.84213452 -0.25378501 6.84213452 -1.484375 9.50390625 C-2.11085938 11.01791016 -2.11085938 11.01791016 -2.75 12.5625 C-3.17796875 13.57441406 -3.6059375 14.58632813 -4.046875 15.62890625 C-4.36140625 16.41136719 -4.6759375 17.19382812 -5 18 C-4.34 18 -3.68 18 -3 18 C-3.33 19.98 -3.66 21.96 -4 24 C-5.32 24 -6.64 24 -8 24 C-8 23.01 -8 22.02 -8 21 C-8.99 21 -9.98 21 -11 21 C-10.42457313 14.3250483 -9.5708268 9.38271752 -4.4375 4.625 C-2 3 -2 3 0 3 C0 2.01 0 1.02 0 0 Z " fill="#024AAA" transform="translate(379,366)"/>
<path d="M0 0 C0.33 0 0.66 0 1 0 C1.30601786 7.23247077 0.2491851 13.44812047 -1.5625 20.4375 C-1.82627441 21.47777344 -2.09004883 22.51804687 -2.36181641 23.58984375 C-4.84381063 33.03734128 -8.16991242 42.02535691 -12 51 C-13.32 50.34 -14.64 49.68 -16 49 C-15.49210937 47.88367188 -14.98421875 46.76734375 -14.4609375 45.6171875 C-9.01703544 33.35049156 -5.22334046 21.01167367 -2 8 C-1.61208989 6.45179517 -1.22407883 4.90361563 -0.8359375 3.35546875 C-0.56007813 2.24816406 -0.28421875 1.14085937 0 0 Z " fill="#164A96" transform="translate(430,293)"/>
<path d="M0 0 C1.875 1.0625 1.875 1.0625 3 3 C3.4375 6.5 3.4375 6.5 3 10 C1.4375 12 1.4375 12 -1 13 C-4.625 12.9375 -4.625 12.9375 -8 12 C-9.5 10.3125 -9.5 10.3125 -10 8 C-9.8125 4.875 -9.8125 4.875 -9 2 C-5.53076119 -0.31282587 -4.07794425 -0.42478586 0 0 Z " fill="#0449AC" transform="translate(276,383)"/>
<path d="M0 0 C12.73532855 6.09813351 23.40159869 15.80446313 33 26 C32.01 26.33 31.02 26.66 30 27 C28.1171875 25.69921875 28.1171875 25.69921875 25.875 23.6875 C18.86850164 17.79661968 10.94331763 13.496913 3 9 C3.99 8.67 4.98 8.34 6 8 C6.66 8.33 7.32 8.66 8 9 C8 8.01 8 7.02 8 6 C5.34771188 4.92474806 2.71631546 3.90543849 0 3 C0 2.01 0 1.02 0 0 Z " fill="#0E4896" transform="translate(346,122)"/>
<path d="M0 0 C-1.32 0.99 -2.64 1.98 -4 3 C-0.66196309 5.22535794 0.62819711 5.28978404 4.54296875 5.4140625 C6.15268555 5.47207031 6.15268555 5.47207031 7.79492188 5.53125 C8.91447266 5.5621875 10.03402344 5.593125 11.1875 5.625 C12.31865234 5.66367188 13.44980469 5.70234375 14.61523438 5.7421875 C17.4099925 5.83652533 20.20474278 5.92211652 23 6 C23 6.66 23 7.32 23 8 C22.25016846 8.02505615 21.50033691 8.0501123 20.7277832 8.07592773 C17.2559184 8.19358641 13.78421577 8.31552572 10.3125 8.4375 C8.54422852 8.49647461 8.54422852 8.49647461 6.74023438 8.55664062 C-1.19358612 8.83921505 -9.08973117 9.32754051 -17 10 C-16.67 9.34 -16.34 8.68 -16 8 C-13.35139573 7.40644386 -10.70802678 7.25790731 -8 7 C-7.67 5.35 -7.34 3.7 -7 2 C-7.83789062 2.31710938 -8.67578125 2.63421875 -9.5390625 2.9609375 C-13.2340989 4.07028251 -16.52889627 4.40729602 -20.375 4.625 C-22.24285156 4.73714844 -22.24285156 4.73714844 -24.1484375 4.8515625 C-25.55996094 4.92503906 -25.55996094 4.92503906 -27 5 C-23.16534521 2.66674444 -18.97909931 2.10816449 -14.625 1.375 C-13.51125 1.17390625 -13.51125 1.17390625 -12.375 0.96875 C-8.19880525 0.24566328 -4.25616073 -0.14862783 0 0 Z " fill="#0C4897" transform="translate(252,101)"/>
<path d="M0 0 C0.99 0.66 1.98 1.32 3 2 C2.8359375 4.796875 2.8359375 4.796875 2 8 C-0.3984375 9.828125 -0.3984375 9.828125 -3.375 11.25 C-4.35210937 11.72953125 -5.32921875 12.2090625 -6.3359375 12.703125 C-7.21507812 13.13109375 -8.09421875 13.5590625 -9 14 C-9.99 14.66 -10.98 15.32 -12 16 C-12.99 16 -13.98 16 -15 16 C-14.38665913 9.49858677 -14.38665913 9.49858677 -12.8125 7.46875 C-10.46545809 5.56683673 -7.98100695 4.22523897 -5.3125 2.8125 C-4.31863281 2.28269531 -3.32476562 1.75289063 -2.30078125 1.20703125 C-1.54152344 0.80871094 -0.78226563 0.41039063 0 0 Z " fill="#194B90" transform="translate(186,120)"/>
<path d="M0 0 C-1.134375 0.433125 -2.26875 0.86625 -3.4375 1.3125 C-5.2009375 2.1478125 -5.2009375 2.1478125 -7 3 C-7.33 3.99 -7.66 4.98 -8 6 C-5.69 6 -3.38 6 -1 6 C-4.44855464 7.89499785 -7.98800385 8.99640115 -11.75 10.125 C-12.92046875 10.47820312 -14.0909375 10.83140625 -15.296875 11.1953125 C-16.63492188 11.59363281 -16.63492188 11.59363281 -18 12 C-19.5625 10.8125 -19.5625 10.8125 -21 9 C-20.6875 6.3125 -20.6875 6.3125 -20 4 C-17.42032203 3.13310822 -14.83723873 2.28126211 -12.25 1.4375 C-11.52039063 1.19064453 -10.79078125 0.94378906 -10.0390625 0.68945312 C-9.33007812 0.46064453 -8.62109375 0.23183594 -7.890625 -0.00390625 C-6.91657715 -0.32597046 -6.91657715 -0.32597046 -5.92285156 -0.65454102 C-3.66555462 -1.06008636 -2.16526518 -0.69296911 0 0 Z " fill="#114B98" transform="translate(225,107)"/>
<path d="M0 0 C-0.99 0.495 -0.99 0.495 -2 1 C-0.27773504 4.24849977 -0.27773504 4.24849977 3 5 C2.01 5.495 2.01 5.495 1 6 C1 6.66 1 7.32 1 8 C3.31 8 5.62 8 8 8 C8 8.66 8 9.32 8 10 C4.11678983 11.16496305 1.82858408 11.17566208 -1.6875 9.3125 C-2.35136719 8.94253906 -3.01523438 8.57257813 -3.69921875 8.19140625 C-7.9390044 5.99593151 -12.49491011 4.55690606 -17 3 C-17 2.34 -17 1.68 -17 1 C-10.97767819 -0.46619907 -6.09632423 -1.32528788 0 0 Z " fill="#F8DE67" transform="translate(242,142)"/>
<path d="M0 0 C-0.66 2.97 -1.32 5.94 -2 9 C5.20800976 7.81659541 11.54904004 5.78305678 18.3125 3.0234375 C21 2 21 2 23 2 C23 2.66 23 3.32 23 4 C20.03 5.32 17.06 6.64 14 8 C14.33 9.32 14.66 10.64 15 12 C14.01 12.33 13.02 12.66 12 13 C11.01 12.01 10.02 11.02 9 10 C8.01 10.33 7.02 10.66 6 11 C3.99124558 10.72428861 1.98821313 10.39764263 0 10 C0 11.32 0 12.64 0 14 C-2.31 13.67 -4.62 13.34 -7 13 C-7.33 11.68 -7.66 10.36 -8 9 C-7.01 8.67 -6.02 8.34 -5 8 C-4.87625 6.865625 -4.7525 5.73125 -4.625 4.5625 C-4.41875 3.386875 -4.2125 2.21125 -4 1 C-2 0 -2 0 0 0 Z " fill="#08499E" transform="translate(185,217)"/>
<path d="M0 0 C0.66 0.33 1.32 0.66 2 1 C1.9278125 1.86882812 1.855625 2.73765625 1.78125 3.6328125 C1.6884375 4.78523438 1.595625 5.93765625 1.5 7.125 C1.4071875 8.26195312 1.314375 9.39890625 1.21875 10.5703125 C1.0174779 13.72597149 0.96157096 16.83921165 1 20 C-0.65 19.67 -2.3 19.34 -4 19 C-4 18.34 -4 17.68 -4 17 C-4.66 17 -5.32 17 -6 17 C-6 16.34 -6 15.68 -6 15 C-6.66 15 -7.32 15 -8 15 C-7.42655063 12.13275314 -7.1385485 11.1385485 -5 9 C-4.65657551 7.66923011 -4.32380126 6.33568021 -4 5 C-3.34 4.01 -2.68 3.02 -2 2 C-1.34 2 -0.68 2 0 2 C0 1.34 0 0.68 0 0 Z " fill="#024AAC" transform="translate(289,363)"/>
<path d="M0 0 C0.99 0 1.98 0 3 0 C3.33575056 2.43718935 3.66869285 4.87470615 4 7.3125 C4.09539062 8.00279297 4.19078125 8.69308594 4.2890625 9.40429688 C4.68027442 12.29647073 5 15.07764977 5 18 C1.5625 17.1875 1.5625 17.1875 -2 16 C-2.33 15.01 -2.66 14.02 -3 13 C-4.32 13.33 -5.64 13.66 -7 14 C-7 13.01 -7 12.02 -7 11 C-5.35 10.67 -3.7 10.34 -2 10 C-2 9.34 -2 8.68 -2 8 C-2 6 -2 4 -2 2 C-1.34 2 -0.68 2 0 2 C0 1.34 0 0.68 0 0 Z " fill="#044BAB" transform="translate(313,367)"/>
<path d="M0 0 C-0.33 0.99 -0.66 1.98 -1 3 C-2.70239258 3.70776367 -2.70239258 3.70776367 -4.89453125 4.16796875 C-6.08079102 4.42416992 -6.08079102 4.42416992 -7.29101562 4.68554688 C-8.12310547 4.85119141 -8.95519531 5.01683594 -9.8125 5.1875 C-10.63298828 5.36474609 -11.45347656 5.54199219 -12.29882812 5.72460938 C-16.00687512 6.50350976 -19.17916321 7 -23 7 C-23.33 6.01 -23.66 5.02 -24 4 C-25.87387216 3.19787372 -25.87387216 3.19787372 -28.0625 2.8125 C-28.79597656 2.65394531 -29.52945313 2.49539062 -30.28515625 2.33203125 C-30.85105469 2.22246094 -31.41695312 2.11289063 -32 2 C-32 1.67 -32 1.34 -32 1 C-30.99582031 1.01160156 -29.99164063 1.02320313 -28.95703125 1.03515625 C-21.1161935 1.09679654 -13.39235906 0.92503118 -5.57421875 0.21875 C-3 0 -3 0 0 0 Z " fill="#F1DC72" transform="translate(160,174)"/>
<path d="M0 0 C-3.75 3 -3.75 3 -6 3 C-6.16687448 5.41645782 -6.16687448 5.41645782 -6 8 C-5.34 8.66 -4.68 9.32 -4 10 C-6.64 10 -9.28 10 -12 10 C-11.67 9.01 -11.34 8.02 -11 7 C-12.32 6.67 -13.64 6.34 -15 6 C-15 4.02 -15 2.04 -15 0 C-13.06544546 -0.38991022 -11.12718172 -0.76145349 -9.1875 -1.125 C-8.10855469 -1.33382812 -7.02960938 -1.54265625 -5.91796875 -1.7578125 C-3 -2 -3 -2 0 0 Z " fill="#FCDE5A" transform="translate(255,140)"/>
<path d="M0 0 C2.97 0.33 5.94 0.66 9 1 C9.33 1.99 9.66 2.98 10 4 C9.34 4 8.68 4 8 4 C8.33 4.99 8.66 5.98 9 7 C7.02 7 5.04 7 3 7 C3 7.66 3 8.32 3 9 C-0.30096158 9.8252404 -2.8033 10.37001429 -6 9 C-6.33 8.01 -6.66 7.02 -7 6 C-5.35 6 -3.7 6 -2 6 C-2 5.34 -2 4.68 -2 4 C-2.66 3.67 -3.32 3.34 -4 3 C-3.01 3 -2.02 3 -1 3 C-0.67 2.01 -0.34 1.02 0 0 Z " fill="#FDDE58" transform="translate(263,136)"/>
<path d="M0 0 C0 0.99 0 1.98 0 3 C-0.99 3 -1.98 3 -3 3 C-3.33 3.99 -3.66 4.98 -4 6 C-6.3125 6.625 -6.3125 6.625 -9 7 C-9.99 6.34 -10.98 5.68 -12 5 C-12.433125 5.9590625 -12.433125 5.9590625 -12.875 6.9375 C-14 9 -14 9 -16 10 C-17.99960012 10.039992 -20.00047242 10.04346799 -22 10 C-22.66 8.68 -23.32 7.36 -24 6 C-20.7 5.67 -17.4 5.34 -14 5 C-14 4.34 -14 3.68 -14 3 C-12.4188708 2.49307308 -10.83498617 1.99473557 -9.25 1.5 C-8.36828125 1.2215625 -7.4865625 0.943125 -6.578125 0.65625 C-4 0 -4 0 0 0 Z " fill="#0249AC" transform="translate(328,425)"/>
<path d="M0 0 C0.598125 0.226875 1.19625 0.45375 1.8125 0.6875 C0.98105469 1.99074219 0.98105469 1.99074219 0.1328125 3.3203125 C-0.59928941 4.48416681 -1.33104169 5.6482411 -2.0625 6.8125 C-2.42730469 7.38226563 -2.79210937 7.95203125 -3.16796875 8.5390625 C-5.4261966 12.15222705 -7.0061679 15.59636041 -8.1875 19.6875 C-9.5075 19.3575 -10.8275 19.0275 -12.1875 18.6875 C-11.58567075 14.6508404 -10.28488902 11.62457569 -8.3125 8.0625 C-7.79945312 7.12148437 -7.28640625 6.18046875 -6.7578125 5.2109375 C-3.22811738 -0.46115963 -3.22811738 -0.46115963 0 0 Z " fill="#27578D" transform="translate(124.1875,183.3125)"/>
<path d="M0 0 C0.66 1.32 1.32 2.64 2 4 C1.46632812 3.855625 0.93265625 3.71125 0.3828125 3.5625 C-11.51388394 0.59861715 -22.63101225 2.33441258 -34.3203125 5.66015625 C-36 6 -36 6 -38 5 C-39.32 5 -40.64 5 -42 5 C-42 6.98 -42 8.96 -42 11 C-42.33 11 -42.66 11 -43 11 C-43.04241723 8.66705225 -43.04092937 6.33297433 -43 4 C-35.21064293 -3.78935707 -10.5135184 -0.1072808 0 0 Z " fill="#0E4589" transform="translate(238,162)"/>
<path d="M0 0 C0 3 0 3 -1.64453125 4.68359375 C-2.35996094 5.26238281 -3.07539063 5.84117187 -3.8125 6.4375 C-6.07227299 8.27742445 -7.90439336 9.87016664 -9.63671875 12.22265625 C-10.08660156 12.80917969 -10.53648437 13.39570313 -11 14 C-11.66 14 -12.32 14 -13 14 C-13.33 14.99 -13.66 15.98 -14 17 C-15.32 17 -16.64 17 -18 17 C-18 17.66 -18 18.32 -18 19 C-20.01822917 19.45572917 -22.03645833 19.91145833 -24.0546875 20.3671875 C-26.20719964 20.90474428 -26.20719964 20.90474428 -28 23 C-30.125 22.625 -30.125 22.625 -32 22 C-31.20078125 21.59910156 -30.4015625 21.19820312 -29.578125 20.78515625 C-18.68163857 15.14507349 -9.18637379 8.14246768 0 0 Z " fill="#0D4693" transform="translate(240,196)"/>
<path d="M0 0 C1.56234375 0.38091797 1.56234375 0.38091797 3.15625 0.76953125 C13.05669401 3.15596507 22.97349504 5.21870975 33 7 C33 7.33 33 7.66 33 8 C23.44947153 8.72843014 15.09838514 6.5571371 6 4 C5.67 4.99 5.34 5.98 5 7 C5.99 7.99 6.98 8.98 8 10 C4.7 9.01 1.4 8.02 -2 7 C-1.34 6.01 -0.68 5.02 0 4 C0 2.68 0 1.36 0 0 Z " fill="#0E4897" transform="translate(208,425)"/>
<path d="M0 0 C2.6739124 0.89130413 5.23723823 1.47731534 8 2 C3.95001278 5.40198926 -0.63626649 8 -6 8 C-5.67 6.68 -5.34 5.36 -5 4 C-4.01 4.33 -3.02 4.66 -2 5 C-2 4.01 -2 3.02 -2 2 C-3.01320313 2.34224609 -3.01320313 2.34224609 -4.046875 2.69140625 C-5.38492187 3.12259766 -5.38492187 3.12259766 -6.75 3.5625 C-7.63171875 3.85253906 -8.5134375 4.14257812 -9.421875 4.44140625 C-12.07834316 5.01697435 -13.47031106 4.89248371 -16 4 C-13.71144298 3.13656269 -11.4198072 2.2840189 -9.125 1.4375 C-8.47402344 1.19064453 -7.82304687 0.94378906 -7.15234375 0.68945312 C-2.2265625 -1.11328125 -2.2265625 -1.11328125 0 0 Z " fill="#0F4A9A" transform="translate(330,423)"/>
<path d="M0 0 C0.66 0 1.32 0 2 0 C1.32091195 6.05578515 0.30160073 11.97231248 -0.9375 17.9375 C-1.10701172 18.79923828 -1.27652344 19.66097656 -1.45117188 20.54882812 C-1.62068359 21.36673828 -1.79019531 22.18464844 -1.96484375 23.02734375 C-2.19095337 24.13710571 -2.19095337 24.13710571 -2.42163086 25.26928711 C-3 27 -3 27 -5 28 C-4.66815916 18.16091922 -2.7863603 9.36994648 0 0 Z " fill="#214D8C" transform="translate(104,222)"/>
<path d="M0 0 C1 2 1 2 0.44140625 3.9453125 C0.15136719 4.66460937 -0.13867188 5.38390625 -0.4375 6.125 C-0.72496094 6.84945312 -1.01242188 7.57390625 -1.30859375 8.3203125 C-1.53675781 8.87460938 -1.76492187 9.42890625 -2 10 C-0.68 9.67 0.64 9.34 2 9 C0.5129879 13.59621922 -1.79812128 16.46972347 -5 20 C-5.33 20 -5.66 20 -6 20 C-6.19294408 15.17639811 -5.75747614 11.50353262 -4 7 C-3.34 7 -2.68 7 -2 7 C-2 5.02 -2 3.04 -2 1 C-1.34 0.67 -0.68 0.34 0 0 Z " fill="#174D96" transform="translate(177,242)"/>
<path d="M0 0 C0.33 0 0.66 0 1 0 C1 2.64 1 5.28 1 8 C1.66 8.33 2.32 8.66 3 9 C2.7525 9.8971875 2.7525 9.8971875 2.5 10.8125 C1.8885876 13.11344336 1.8885876 13.11344336 2 16 C0.02 16.99 0.02 16.99 -2 18 C-2 19.32 -2 20.64 -2 22 C-2.66 22 -3.32 22 -4 22 C-3.3622098 14.47407567 -1.80110167 7.32901118 0 0 Z " fill="#0B469B" transform="translate(147,260)"/>
<path d="M0 0 C2.125 2.3125 2.125 2.3125 4 5 C4.98230498 6.0173873 5.97469597 7.02596117 7 8 C4.03824877 7.38722388 2.61941217 6.74627478 0 5 C0 4.01 0 3.02 0 2 C-0.99 2 -1.98 2 -3 2 C-3.33 2.66 -3.66 3.32 -4 4 C-4.57492188 3.81695312 -5.14984375 3.63390625 -5.7421875 3.4453125 C-8.26297487 2.94813298 -9.66228418 3.21161161 -12.125 3.875 C-17.05439999 5.08889551 -21.94698007 5.59913412 -27 6 C-24.30472732 4.55501021 -21.82920025 3.59758076 -18.84765625 2.9296875 C-17.68266602 2.66865234 -17.68266602 2.66865234 -16.49414062 2.40234375 C-15.29047852 2.14130859 -15.29047852 2.14130859 -14.0625 1.875 C-13.26392578 1.69324219 -12.46535156 1.51148438 -11.64257812 1.32421875 C-3.57769366 -0.45312944 -3.57769366 -0.45312944 0 0 Z " fill="#E8D584" transform="translate(117,165)"/>
<path d="M0 0 C0.33 0 0.66 0 1 0 C0.4003591 7.2791851 -1.14844733 14.02358241 -3.0625 21.0625 C-3.34416016 22.11888672 -3.62582031 23.17527344 -3.91601562 24.26367188 C-4.60489729 26.84405915 -5.29965829 29.42270414 -6 32 C-6.33 32 -6.66 32 -7 32 C-7.02689216 30.52093108 -7.04634621 29.04172517 -7.0625 27.5625 C-7.07410156 26.73878906 -7.08570313 25.91507813 -7.09765625 25.06640625 C-7 23 -7 23 -6 22 C-5.855625 20.96875 -5.71125 19.9375 -5.5625 18.875 C-5.0082083 15.05654608 -4.12585988 11.67780895 -3 8 C-2.34 8 -1.68 8 -1 8 C-0.67 5.36 -0.34 2.72 0 0 Z " fill="#0E4793" transform="translate(192,185)"/>
<path d="M0 0 C-0.99 0 -1.98 0 -3 0 C-3 0.66 -3 1.32 -3 2 C-5.64 2 -8.28 2 -11 2 C-10.67 2.99 -10.34 3.98 -10 5 C-10.43098577 8.44788617 -11.03061395 10.04592092 -13 13 C-15.46943529 9.29584707 -15.46913089 7.37855495 -15 3 C-12.72787469 0.27344963 -10.98148683 -0.00396711 -7.5 -0.75 C-4.56739966 -0.95947145 -2.71837657 -0.97861557 0 0 Z " fill="#0B499B" transform="translate(128,151)"/>
<path d="M0 0 C1.65 0 3.3 0 5 0 C2.125 4.875 2.125 4.875 1 6 C-7.70425132 6.78038115 -15.62812311 5.26850858 -24 3 C-24 2.67 -24 2.34 -24 2 C-17.84765625 1.90234375 -17.84765625 1.90234375 -16 2 C-15.67 2.33 -15.34 2.66 -15 3 C-12.65012738 3.23527773 -10.29443961 3.41386417 -7.9375 3.5625 C-6.64714844 3.64628906 -5.35679687 3.73007812 -4.02734375 3.81640625 C-2.52880859 3.90728516 -2.52880859 3.90728516 -1 4 C-0.67 2.68 -0.34 1.36 0 0 Z " fill="#0849A0" transform="translate(248,435)"/>
<path d="M0 0 C0.33 0 0.66 0 1 0 C1.20674944 5.78898419 0.59162079 10.42932723 -1 16 C-0.34 16 0.32 16 1 16 C-0.20381448 18.49361571 -1.45428722 20.68143083 -3 23 C-3.66 23 -4.32 23 -5 23 C-3.69951304 15.22767795 -1.99548103 7.62273755 0 0 Z " fill="#F8E17F" transform="translate(102,336)"/>
<path d="M0 0 C0.33 0 0.66 0 1 0 C1 2.64 1 5.28 1 8 C0.34 8 -0.32 8 -1 8 C-0.835 9.093125 -0.67 10.18625 -0.5 11.3125 C0 15 0 15 0 18 C-0.99 18.33 -1.98 18.66 -3 19 C-3.61067144 20.85744207 -3.61067144 20.85744207 -4 23 C-4.63654342 24.3479743 -5.29605388 25.68596724 -6 27 C-7.45978637 24.08042725 -6.45980699 22.43932954 -5.56640625 19.3359375 C-5.24736328 18.21445313 -4.92832031 17.09296875 -4.59960938 15.9375 C-4.25736328 14.761875 -3.91511719 13.58625 -3.5625 12.375 C-3.22412109 11.19164062 -2.88574219 10.00828125 -2.53710938 8.7890625 C-1.69782177 5.85746635 -0.8518574 2.92796368 0 0 Z " fill="#0B4492" transform="translate(174,172)"/>
<path d="M0 0 C1.32 0 2.64 0 4 0 C4.33 0.99 4.66 1.98 5 3 C4.505 3.86625 4.01 4.7325 3.5 5.625 C1.5226512 10.0740348 2.13646787 13.31819928 3 18 C1.68 17.67 0.36 17.34 -1 17 C-0.67 16.34 -0.34 15.68 0 15 C0.0716735 12.44842345 0.09308442 9.92527029 0.0625 7.375 C0.05573242 6.31539063 0.05573242 6.31539063 0.04882812 5.234375 C0.03703875 3.48954725 0.01910324 1.744763 0 0 Z " fill="#0448AC" transform="translate(326,361)"/>
<path d="M0 0 C1.41655793 -0.0272415 2.83327045 -0.04650467 4.25 -0.0625 C5.43335938 -0.07990234 5.43335938 -0.07990234 6.640625 -0.09765625 C8.96285143 -0.00153761 10.8300721 0.15987305 13 1 C13.33 1.99 13.66 2.98 14 4 C3.44191344 5.33257403 3.44191344 5.33257403 -1 4 C-0.67 2.68 -0.34 1.36 0 0 Z " fill="#0249AC" transform="translate(291,433)"/>
<path d="M0 0 C1.051875 0.309375 2.10375 0.61875 3.1875 0.9375 C6.12752396 1.75685094 9.00161623 2.45483931 12 3 C11.67 3.66 11.34 4.32 11 5 C11.66 5.66 12.32 6.32 13 7 C10.63106495 8.18446753 9.5933174 8.00689755 7 7.6875 C6.29875 7.60886719 5.5975 7.53023438 4.875 7.44921875 C3 7 3 7 1 5 C0 2 0 2 0 0 Z " fill="#024AAD" transform="translate(294,104)"/>
<path d="M0 0 C1.69469425 2.54204137 2.45762849 4.07600823 3.2890625 6.90625 C3.50820312 7.65003906 3.72734375 8.39382812 3.953125 9.16015625 C4.17484375 9.93230469 4.3965625 10.70445313 4.625 11.5 C4.85445312 12.27214844 5.08390625 13.04429688 5.3203125 13.83984375 C6.25358223 17.04518087 7 19.63701221 7 23 C4.525 22.01 4.525 22.01 2 21 C1.875 16.25 1.875 16.25 3 14 C2.70351562 13.40703125 2.40703125 12.8140625 2.1015625 12.203125 C0.81842688 9.63685377 0.59996207 7.59951958 0.375 4.75 C0.30023438 3.85796875 0.22546875 2.9659375 0.1484375 2.046875 C0.09945312 1.37140625 0.05046875 0.6959375 0 0 Z " fill="#F6DC6D" transform="translate(192,73)"/>
<path d="M0 0 C-0.63808594 0.27714844 -1.27617187 0.55429688 -1.93359375 0.83984375 C-2.75988281 1.20207031 -3.58617187 1.56429687 -4.4375 1.9375 C-5.26121094 2.29714844 -6.08492187 2.65679687 -6.93359375 3.02734375 C-8.94410117 3.83122323 -8.94410117 3.83122323 -10 5 C-9.91062197 6.52519276 -9.75462854 8.04681929 -9.5625 9.5625 C-9.46066406 10.38878906 -9.35882813 11.21507812 -9.25390625 12.06640625 C-9.17011719 12.70449219 -9.08632812 13.34257812 -9 14 C-10.32 14.33 -11.64 14.66 -13 15 C-12.67 11.7 -12.34 8.4 -12 5 C-12.99 5.33 -13.98 5.66 -15 6 C-15.33 5.34 -15.66 4.68 -16 4 C-14.02 3.67 -12.04 3.34 -10 3 C-10 2.34 -10 1.68 -10 1 C-6.16112237 -0.48320272 -3.93795909 -1.22419163 0 0 Z " fill="#0B4797" transform="translate(232,225)"/>
<path d="M0 0 C-11.52164009 4.59225513 -11.52164009 4.59225513 -17 4 C-17.33 3.01 -17.66 2.02 -18 1 C-15.56510233 0.44293854 -13.12850409 -0.0960037 -10.6875 -0.625 C-9.65206055 -0.86476562 -9.65206055 -0.86476562 -8.59570312 -1.109375 C-3.33984375 -2.2265625 -3.33984375 -2.2265625 0 0 Z " fill="#F5E05B" transform="translate(315,129)"/>
<path d="M0 0 C0.66 0.33 1.32 0.66 2 1 C2 8.26 2 15.52 2 23 C0 22 0 22 -1 19 C-1.14492123 17.59335074 -1.24628931 16.1818867 -1.31640625 14.76953125 C-1.35830078 13.96708984 -1.40019531 13.16464844 -1.44335938 12.33789062 C-1.48267578 11.50451172 -1.52199219 10.67113281 -1.5625 9.8125 C-1.60568359 8.96751953 -1.64886719 8.12253906 -1.69335938 7.25195312 C-1.79931518 5.16815567 -1.9001502 3.08409897 -2 1 C-1.34 0.67 -0.68 0.34 0 0 Z " fill="#576FDA" transform="translate(200,314)"/>
<path d="M0 0 C2.3465427 1.31406391 4.67872647 2.64244881 7 4 C7.59425781 4.34675781 8.18851563 4.69351563 8.80078125 5.05078125 C10.4375 6.0625 10.4375 6.0625 13 8 C13 8.99 13 9.98 13 11 C13.66 11.33 14.32 11.66 15 12 C13.68 11.67 12.36 11.34 11 11 C11 10.34 11 9.68 11 9 C10.34 9 9.68 9 9 9 C9 8.34 9 7.68 9 7 C8.01 7 7.02 7 6 7 C6 7.66 6 8.32 6 9 C4.68 8.67 3.36 8.34 2 8 C2.33 6.68 2.66 5.36 3 4 C2.01 3.34 1.02 2.68 0 2 C0 1.34 0 0.68 0 0 Z " fill="#F7DE72" transform="translate(96,190)"/>
<path d="M0 0 C0.66 0.33 1.32 0.66 2 1 C-0.2863012 2.36402043 -2.57821749 3.71634274 -4.875 5.0625 C-5.85146484 5.64741211 -5.85146484 5.64741211 -6.84765625 6.24414062 C-8.53065725 7.22444533 -10.26296199 8.11898432 -12 9 C-12.66 8.67 -13.32 8.34 -14 8 C-13.00931784 5.40280623 -12.48310981 4.23742968 -9.94140625 2.98828125 C-9.15636719 2.76527344 -8.37132812 2.54226563 -7.5625 2.3125 C-6.78003906 2.08175781 -5.99757813 1.85101563 -5.19140625 1.61328125 C-4.46824219 1.41089844 -3.74507813 1.20851563 -3 1 C-2.01 0.67 -1.02 0.34 0 0 Z " fill="#0F4896" transform="translate(352,416)"/>
<path d="M0 0 C0.66 0.66 1.32 1.32 2 2 C1.67626953 4.43017578 1.67626953 4.43017578 0.8828125 7.4453125 C0.60566406 8.52167969 0.32851562 9.59804688 0.04296875 10.70703125 C-0.25996094 11.83496094 -0.56289062 12.96289062 -0.875 14.125 C-1.17019531 15.26066406 -1.46539062 16.39632813 -1.76953125 17.56640625 C-2.50261696 20.38050947 -3.24650909 23.19130423 -4 26 C-4.66 26 -5.32 26 -6 26 C-5.79503906 25.24976563 -5.59007812 24.49953125 -5.37890625 23.7265625 C-3.64572339 17.14212617 -2.43604086 10.79622301 -2 4 C-1.34 4 -0.68 4 0 4 C0 2.68 0 1.36 0 0 Z " fill="#F6E088" transform="translate(139,252)"/>
<path d="M0 0 C-0.33 0.99 -0.66 1.98 -1 3 C-3.475 2.505 -3.475 2.505 -6 2 C-6 2.66 -6 3.32 -6 4 C-8.43338652 5.53508028 -9.67124507 6.03088304 -12.578125 5.7578125 C-13.90070313 5.44457031 -13.90070313 5.44457031 -15.25 5.125 C-16.58804687 4.81949219 -16.58804687 4.81949219 -17.953125 4.5078125 C-18.62859375 4.34023437 -19.3040625 4.17265625 -20 4 C-20 3.67 -20 3.34 -20 3 C-17.41747107 2.49550598 -14.83411297 1.99625699 -12.25 1.5 C-11.52039063 1.35691406 -10.79078125 1.21382812 -10.0390625 1.06640625 C-6.60656468 0.41111121 -3.50830509 0 0 0 Z " fill="#F8DF72" transform="translate(284,133)"/>
<path d="M0 0 C1.32 0.33 2.64 0.66 4 1 C3.34 1.66 2.68 2.32 2 3 C2.32041397 5.60280568 2.32041397 5.60280568 3 8 C0 10 0 10 -3 10 C-2.25 3.375 -2.25 3.375 0 0 Z " fill="#1D558E" transform="translate(174,126)"/>
<path d="M0 0 C0.66 0 1.32 0 2 0 C2 1.32 2 2.64 2 4 C1.01 4 0.02 4 -1 4 C-1 4.66 -1 5.32 -1 6 C-1.639375 6.103125 -2.27875 6.20625 -2.9375 6.3125 C-3.618125 6.539375 -4.29875 6.76625 -5 7 C-5.33 7.99 -5.66 8.98 -6 10 C-6.33 9.01 -6.66 8.02 -7 7 C-7.66 6.67 -8.32 6.34 -9 6 C-6.63672401 3.26357517 -4.36305523 2.23902035 -1 1 C-0.67 0.67 -0.34 0.34 0 0 Z " fill="#0349A8" transform="translate(184,123)"/>
<path d="M0 0 C4.77609498 1.64178265 8.79382904 4.26546702 13 7 C12.01 7.495 12.01 7.495 11 8 C10.67 8.66 10.34 9.32 10 10 C8.70450101 8.90033225 7.41373929 7.79508199 6.125 6.6875 C5.40570313 6.07261719 4.68640625 5.45773437 3.9453125 4.82421875 C2 3 2 3 0 0 Z " fill="#15498E" transform="translate(158,400)"/>
<path d="M0 0 C0.33 0 0.66 0 1 0 C0.9278125 1.05960937 0.855625 2.11921875 0.78125 3.2109375 C0.68746497 4.59895597 0.59371689 5.98697693 0.5 7.375 C0.42845703 8.42300781 0.42845703 8.42300781 0.35546875 9.4921875 C0.09344214 13.2427781 0.09344214 13.2427781 0 17 C0.66 17.33 1.32 17.66 2 18 C0.02 18.33 -1.96 18.66 -4 19 C-3.37968409 12.42465139 -1.85102717 6.33307408 0 0 Z " fill="#ECDA7E" transform="translate(156,126)"/>
<path d="M0 0 C1.32 0.66 2.64 1.32 4 2 C2.79157144 6.43090471 1.48331435 8.98112756 -2 12 C-1.814375 11.0925 -1.62875 10.185 -1.4375 9.25 C-0.81587232 6.14714806 -0.81587232 6.14714806 -1.5625 3.75 C-1.706875 3.1725 -1.85125 2.595 -2 2 C-1.34 1.34 -0.68 0.68 0 0 Z " fill="#0C4AB2" transform="translate(252,326)"/>
<path d="M0 0 C0 0.66 0 1.32 0 2 C-4.455 2.495 -4.455 2.495 -9 3 C-8.34 4.65 -7.68 6.3 -7 8 C-9.88437779 6.70700306 -11.87219421 5.34058637 -14 3 C-9.4871514 0.3964335 -5.15155902 0 0 0 Z " fill="#F6E485" transform="translate(60,177)"/>
<path d="M0 0 C0.85851562 0.43054688 1.71703125 0.86109375 2.6015625 1.3046875 C1.6115625 2.2946875 0.6215625 3.2846875 -0.3984375 4.3046875 C-0.3984375 3.6446875 -0.3984375 2.9846875 -0.3984375 2.3046875 C-5.18860709 4.53930756 -9.38588865 6.79370725 -13.3984375 10.3046875 C-14.0584375 9.9746875 -14.7184375 9.6446875 -15.3984375 9.3046875 C-13.54315407 7.56948714 -11.66937256 5.86944522 -9.7734375 4.1796875 C-9.25136719 3.68597656 -8.72929687 3.19226563 -8.19140625 2.68359375 C-5.13824672 0.00736749 -4.07848686 -0.83444904 0 0 Z " fill="#0E4995" transform="translate(379.3984375,392.6953125)"/>
<path d="M0 0 C2.31 0.66 4.62 1.32 7 2 C7 2.66 7 3.32 7 4 C7.99 4 8.98 4 10 4 C10 4.66 10 5.32 10 6 C10.66 6 11.32 6 12 6 C12.66 7.32 13.32 8.64 14 10 C12.68 10 11.36 10 10 10 C10 9.01 10 8.02 10 7 C9.46375 6.938125 8.9275 6.87625 8.375 6.8125 C4.86049298 5.61016865 2.74424626 3.49476933 0 1 C0 0.67 0 0.34 0 0 Z " fill="#DCD284" transform="translate(96,215)"/>
<path d="M0 0 C-0.56959153 3.62613199 -1.92374534 5.25517741 -4.5625 7.75 C-5.52349609 8.67039062 -5.52349609 8.67039062 -6.50390625 9.609375 C-6.99761719 10.06828125 -7.49132812 10.5271875 -8 11 C-8.33 10.34 -8.66 9.68 -9 9 C-8.18789963 7.08576342 -7.47927983 5.47927983 -6 4 C-6 3.01 -6 2.02 -6 1 C-3.92446352 0.4465236 -2.15634036 0 0 0 Z " fill="#556FE4" transform="translate(273,353)"/>
<path d="M0 0 C0.33 0 0.66 0 1 0 C1.20190089 6.35987804 0.6277833 11.85221129 -1 18 C-1.66 17.34 -2.32 16.68 -3 16 C-2.61909245 10.47684048 -1.42981775 5.33798626 0 0 Z " fill="#245699" transform="translate(430,293)"/>
<path d="M0 0 C-0.33 0.99 -0.66 1.98 -1 3 C-6.79141983 4.01603857 -10.4584498 3.96263236 -16 2 C-16 1.67 -16 1.34 -16 1 C-13.89594609 0.83191581 -11.79175242 0.66558052 -9.6875 0.5 C-8.51574219 0.4071875 -7.34398437 0.314375 -6.13671875 0.21875 C-4.094806 0.07635011 -2.0468721 0 0 0 Z " fill="#C6C880" transform="translate(160,174)"/>
<path d="M0 0 C5.72398793 0.74660712 11.34853777 1.82877141 17 3 C17 3.66 17 4.32 17 5 C12.90659826 6.22802052 10.55143512 6.06042314 6.8125 4.1875 C4.44317598 2.89301725 2.25206708 1.50137805 0 0 Z " fill="#D5CD80" transform="translate(233,147)"/>
<path d="M0 0 C0.99 0.33 1.98 0.66 3 1 C1.45454854 6.47932789 -1.15543212 11.11429181 -4 16 C-4.33 16 -4.66 16 -5 16 C-5 14.35 -5 12.7 -5 11 C-4.34 10.67 -3.68 10.34 -3 10 C-2.34786708 7.97536745 -2.34786708 7.97536745 -2 6 C-1.34 6 -0.68 6 0 6 C0 4.02 0 2.04 0 0 Z " fill="#586CE1" transform="translate(284,330)"/>
<path d="M0 0 C0.66 0 1.32 0 2 0 C1.57576756 1.46224799 1.13509755 2.91973412 0.6875 4.375 C0.44386719 5.18710937 0.20023438 5.99921875 -0.05078125 6.8359375 C-1 9 -1 9 -4 11 C-4 8.69 -4 6.38 -4 4 C-3.01 3.67 -2.02 3.34 -1 3 C-0.67 2.01 -0.34 1.02 0 0 Z " fill="#0348AF" transform="translate(248,323)"/>
<path d="M0 0 C2.45823172 3.68734758 3.01242616 6.69699971 4 11 C3.01 11 2.02 11 1 11 C0.34 11.66 -0.32 12.32 -1 13 C-1.5625 11.0625 -1.5625 11.0625 -2 9 C-1.67 8.67 -1.34 8.34 -1 8 C-0.76924918 6.65252916 -0.58846937 5.29622435 -0.4375 3.9375 C-0.293125 2.638125 -0.14875 1.33875 0 0 Z " fill="#0C479A" transform="translate(234,284)"/>
<path d="M0 0 C1.8133922 3.20010388 2.52213974 6.13283843 3.125 9.75 C3.29257813 10.73484375 3.46015625 11.7196875 3.6328125 12.734375 C3.81457031 13.85585938 3.81457031 13.85585938 4 15 C2.02 14.01 0.04 13.02 -2 12 C-1.33333333 10.66666667 -0.66666667 9.33333333 0 8 C0.0689472 6.62657169 0.08467708 5.24997898 0.0625 3.875 C0.041875 2.59625 0.02125 1.3175 0 0 Z " fill="#0B4592" transform="translate(229,265)"/>
<path d="M0 0 C0 0.66 0 1.32 0 2 C-1.32 2.33 -2.64 2.66 -4 3 C-3.67 4.65 -3.34 6.3 -3 8 C-4.65 7.67 -6.3 7.34 -8 7 C-8.33 7.66 -8.66 8.32 -9 9 C-9 8.34 -9 7.68 -9 7 C-9.66 6.67 -10.32 6.34 -11 6 C-9.54550599 4.9944239 -8.08627557 3.99569565 -6.625 3 C-5.40683594 2.1646875 -5.40683594 2.1646875 -4.1640625 1.3125 C-2 0 -2 0 0 0 Z " fill="#0F4A9C" transform="translate(358,407)"/>
<path d="M0 0 C1.65 0.33 3.3 0.66 5 1 C1.71644638 4.67758005 -1.62778237 6.81389118 -6 9 C-6.66 8.67 -7.32 8.34 -8 8 C-7.34 7.01 -6.68 6.02 -6 5 C-4.68 5 -3.36 5 -2 5 C-2 4.34 -2 3.68 -2 3 C-1.34 2.67 -0.68 2.34 0 2 C0 1.34 0 0.68 0 0 Z " fill="#5870DD" transform="translate(258,364)"/>
<path d="M0 0 C2.56687367 3.8503105 1.83288724 5.58569763 1 10 C-0.32 9.67 -1.64 9.34 -3 9 C-2.44271087 5.65626525 -1.64826111 2.96687001 0 0 Z " fill="#29568B" transform="translate(115,193)"/>
<path d="M0 0 C-0.61875 0.28875 -1.2375 0.5775 -1.875 0.875 C-4.13325765 1.93720042 -4.13325765 1.93720042 -6 4 C-8.6015625 4.1953125 -8.6015625 4.1953125 -11.625 4.125 C-13.12933594 4.09792969 -13.12933594 4.09792969 -14.6640625 4.0703125 C-15.43492188 4.04710937 -16.20578125 4.02390625 -17 4 C-17 3.67 -17 3.34 -17 3 C-15.10614563 2.49255577 -13.20981334 1.99435426 -11.3125 1.5 C-9.72888672 1.08234375 -9.72888672 1.08234375 -8.11328125 0.65625 C-5.28857328 0.0608285 -2.87163292 -0.12786492 0 0 Z " fill="#D7CF7A" transform="translate(126,182)"/>
<path d="M0 0 C7.48291572 6.15034169 7.48291572 6.15034169 10 10 C6.84669446 9.39305845 4.81111133 8.3583335 2.25 6.4375 C1.63640625 5.98246094 1.0228125 5.52742187 0.390625 5.05859375 C-0.06828125 4.70925781 -0.5271875 4.35992187 -1 4 C-0.67 2.68 -0.34 1.36 0 0 Z " fill="#1A4B91" transform="translate(369,139)"/>
<path d="M0 0 C0.99 0.33 1.98 0.66 3 1 C3 1.66 3 2.32 3 3 C5.475 3.99 5.475 3.99 8 5 C7.67 5.66 7.34 6.32 7 7 C5.00045254 7.04254356 2.99958364 7.04080783 1 7 C0 6 0 6 -0.0625 2.9375 C-0.041875 1.968125 -0.02125 0.99875 0 0 Z " fill="#124A9A" transform="translate(352,374)"/>
<path d="M0 0 C0.33 1.32 0.66 2.64 1 4 C2.32 3.67 3.64 3.34 5 3 C3.02 5.31 1.04 7.62 -1 10 C-1.33 9.01 -1.66 8.02 -2 7 C-1.67 6.34 -1.34 5.68 -1 5 C-1.66 4.34 -2.32 3.68 -3 3 C-2.01 2.01 -1.02 1.02 0 0 Z " fill="#0D4698" transform="translate(365,366)"/>
<path d="M0 0 C0.33 0.66 0.66 1.32 1 2 C2.32 1.67 3.64 1.34 5 1 C3.64978174 5.41889613 1.73884332 7.34345343 -2 10 C-1.34 6.7 -0.68 3.4 0 0 Z " fill="#659CA3" transform="translate(174,250)"/>
<path d="M0 0 C0.33 0 0.66 0 1 0 C1.51137226 6.90352555 -0.13035626 11.74827614 -3 18 C-4.63129887 13.93714243 -3.29968777 10.79897816 -2.0625 6.75 C-1.68222656 5.48671875 -1.30195313 4.2234375 -0.91015625 2.921875 C-0.60980469 1.95765625 -0.30945313 0.9934375 0 0 Z " fill="#F8E07E" transform="translate(176,53)"/>
<path d="M0 0 C1.875 0.625 1.875 0.625 4 2 C6.07568864 6.34906192 6.10633079 9.3534107 5 14 C4.67 14 4.34 14 4 14 C4 11.03 4 8.06 4 5 C3.01 5.33 2.02 5.66 1 6 C0.67 4.02 0.34 2.04 0 0 Z " fill="#114996" transform="translate(379,361)"/>
<path d="M0 0 C1.65 0 3.3 0 5 0 C3.34784004 3.57967992 1.26875648 6.77982952 -1 10 C-1.33 10 -1.66 10 -2 10 C-2 8.35 -2 6.7 -2 5 C-1.01 5 -0.02 5 1 5 C0.67 3.35 0.34 1.7 0 0 Z " fill="#FADF72" transform="translate(116,328)"/>
<path d="M0 0 C0.33 0 0.66 0 1 0 C1.33 4.95 1.66 9.9 2 15 C1.34 14.67 0.68 14.34 0 14 C-0.3911938 11.93734178 -0.50674519 9.90556733 -0.65625 7.8125 C-0.7696875 7.214375 -0.883125 6.61625 -1 6 C-1.66 5.67 -2.32 5.34 -3 5 C-2.03114628 3.31503702 -1.03013277 1.64821244 0 0 Z " fill="#456478" transform="translate(141,287)"/>
<path d="M0 0 C0.66 0.33 1.32 0.66 2 1 C2 2.32 2 3.64 2 5 C1.01 5.495 1.01 5.495 0 6 C-0.68472665 7.88764903 -0.68472665 7.88764903 -1.125 10.0625 C-1.29257813 10.79597656 -1.46015625 11.52945313 -1.6328125 12.28515625 C-1.75398437 12.85105469 -1.87515625 13.41695312 -2 14 C-2.66 14 -3.32 14 -4 14 C-3.52525225 11.85318469 -3.04508251 9.70756772 -2.5625 7.5625 C-2.29566406 6.36753906 -2.02882812 5.17257813 -1.75390625 3.94140625 C-1 1 -1 1 0 0 Z " fill="#F7E08B" transform="translate(181,37)"/>
<path d="M0 0 C0.99 0.33 1.98 0.66 3 1 C2.01 1.33 1.02 1.66 0 2 C0 2.99 0 3.98 0 5 C-0.66 5.66 -1.32 6.32 -2 7 C-4.125 6.625 -4.125 6.625 -6 6 C-6 5.34 -6 4.68 -6 4 C-3.1875 1.8125 -3.1875 1.8125 0 0 Z " fill="#034AAA" transform="translate(370,399)"/>
<path d="M0 0 C-0.33 0.99 -0.66 1.98 -1 3 C-1.99 3 -2.98 3 -4 3 C-4.33 3.66 -4.66 4.32 -5 5 C-7.64860427 5.59355614 -10.29197322 5.74209269 -13 6 C-10.65890118 4.43926745 -8.43666597 3.13626133 -5.9375 1.875 C-5.24527344 1.52179688 -4.55304688 1.16859375 -3.83984375 0.8046875 C-2 0 -2 0 0 0 Z " fill="#124A96" transform="translate(343,416)"/>
<path d="M0 0 C-0.33 0.99 -0.66 1.98 -1 3 C-3.97 3 -6.94 3 -10 3 C-10 2.34 -10 1.68 -10 1 C-6.59437148 0.22157062 -3.49234244 -0.09978121 0 0 Z " fill="#E1D06F" transform="translate(235,142)"/>
<path d="M0 0 C0 0.66 0 1.32 0 2 C0.66 2.33 1.32 2.66 2 3 C1.01 3.99 0.02 4.98 -1 6 C-1.33 5.34 -1.66 4.68 -2 4 C-3.32 4 -4.64 4 -6 4 C-6 3.34 -6 2.68 -6 2 C-3 0 -3 0 0 0 Z " fill="#E5D065" transform="translate(170,134)"/>
<path d="M0 0 C2.875 -0.1875 2.875 -0.1875 6 0 C6.66 0.99 7.32 1.98 8 3 C7.34 3.66 6.68 4.32 6 5 C3.875 4.625 3.875 4.625 2 4 C2 3.01 2 2.02 2 1 C1.34 0.67 0.68 0.34 0 0 Z " fill="#024AAF" transform="translate(195,423)"/>
<path d="M0 0 C2.17578125 0.0234375 2.17578125 0.0234375 4.125 0.375 C6.1875 2.625 6.1875 2.625 7.125 5.375 C6.8125 7.6875 6.8125 7.6875 6.125 9.375 C5.795 7.395 5.465 5.415 5.125 3.375 C3.84625 3.230625 2.5675 3.08625 1.25 2.9375 C-1.13192894 2.66857254 -2.71952691 2.45273654 -4.875 1.375 C-3.875 0.375 -3.875 0.375 0 0 Z " fill="#164B95" transform="translate(354.875,359.625)"/>
<path d="M0 0 C0.66 0 1.32 0 2 0 C1.67 2.31 1.34 4.62 1 7 C0.01 7 -0.98 7 -2 7 C-2 7.66 -2 8.32 -2 9 C-2.66 9 -3.32 9 -4 9 C-3.71125 8.443125 -3.4225 7.88625 -3.125 7.3125 C-1.9586747 4.91505355 -0.9660119 2.48403061 0 0 Z " fill="#07499E" transform="translate(407,356)"/>
<path d="M0 0 C1.39195915 4.17587745 -0.17676781 6.13474776 -2 10 C-2.144375 9.401875 -2.28875 8.80375 -2.4375 8.1875 C-2.8872439 6.43849596 -3.42892341 4.71322977 -4 3 C-2.68 2.01 -1.36 1.02 0 0 Z " fill="#536BE9" transform="translate(294,312)"/>
<path d="M0 0 C3.875 1.75 3.875 1.75 5 4 C4.71887936 6.00800456 4.38932033 8.01014051 4 10 C0 4 0 4 0 0 Z " fill="#0A4896" transform="translate(209,274)"/>
<path d="M0 0 C0 3 0 3 -2.5 5.6875 C-3.325 6.450625 -4.15 7.21375 -5 8 C-5.125 3.25 -5.125 3.25 -4 1 C-1.9375 0.375 -1.9375 0.375 0 0 Z " fill="#0F4896" transform="translate(345,376)"/>
<path d="M0 0 C1.65 0.33 3.3 0.66 5 1 C4.67 1.99 4.34 2.98 4 4 C2.02 4 0.04 4 -2 4 C-1.34 2.68 -0.68 1.36 0 0 Z " fill="#014AB2" transform="translate(296,359)"/>
<path d="M0 0 C2.15377564 2.62198774 3.40072174 4.64404172 4 8 C2.02 7.34 0.04 6.68 -2 6 C-1.34 4.02 -0.68 2.04 0 0 Z " fill="#0F489C" transform="translate(244,309)"/>
<path d="M0 0 C1.125 3.75 1.125 3.75 0 6 C0.28112064 8.00800456 0.61067967 10.01014051 1 12 C-0.5 10.9375 -0.5 10.9375 -2 9 C-2.3125 5.4375 -2.3125 5.4375 -2 2 C-1.34 1.34 -0.68 0.68 0 0 Z " fill="#184B8F" transform="translate(115,152)"/>
<path d="M0 0 C0.33 0.66 0.66 1.32 1 2 C3.97 2 6.94 2 10 2 C6.91111478 4.05925681 6.29064073 4.2390374 2.8125 4.125 C0.9253125 4.063125 0.9253125 4.063125 -1 4 C-0.67 2.68 -0.34 1.36 0 0 Z " fill="#E4D987" transform="translate(159,139)"/>
<path d="M0 0 C0.99 0 1.98 0 3 0 C3.66 1.98 4.32 3.96 5 6 C3.125 5.6875 3.125 5.6875 1 5 C0.34 4.01 -0.32 3.02 -1 2 C-0.67 1.34 -0.34 0.68 0 0 Z " fill="#024BAE" transform="translate(333,117)"/>
<path d="M0 0 C0.99 0.495 0.99 0.495 2 1 C2.33 1.99 2.66 2.98 3 4 C6.00007271 5.70855022 6.00007271 5.70855022 9 7 C6.61888932 7.85039667 5.28649422 8.07366994 2.8125 7.4375 C1 6 1 6 0.25 2.875 C0.1675 1.92625 0.085 0.9775 0 0 Z " fill="#124A92" transform="translate(266,388)"/>
<path d="M0 0 C1.98 0.99 1.98 0.99 4 2 C4 5 4 5 2.5 6.6875 C2.005 7.120625 1.51 7.55375 1 8 C0.67 5.36 0.34 2.72 0 0 Z " fill="#F9DC72" transform="translate(134,302)"/>
<path d="M0 0 C2.6855594 2.6855594 3.06049974 5.37621328 4 9 C1.69 8.01 -0.62 7.02 -3 6 C-2 4 -1 2 0 0 Z " fill="#0D4290" transform="translate(238,296)"/>
<path d="M0 0 C-0.66 2.97 -1.32 5.94 -2 9 C-2.66 9 -3.32 9 -4 9 C-4 6.36 -4 3.72 -4 1 C-2 0 -2 0 0 0 Z " fill="#0C4794" transform="translate(185,217)"/>
<path d="M0 0 C0.33 0.66 0.66 1.32 1 2 C1.66 2 2.32 2 3 2 C2.625 4.9375 2.625 4.9375 2 8 C1.01 8.495 1.01 8.495 0 9 C0 6.69 0 4.38 0 2 C-0.66 1.67 -1.32 1.34 -2 1 C-1.34 0.67 -0.68 0.34 0 0 Z " fill="#DACA6F" transform="translate(172,120)"/>
<path d="M0 0 C1.3921875 0.3403125 1.3921875 0.3403125 2.8125 0.6875 C-0.12578597 3.19048434 -2.36652761 4.15680939 -6.1875 4.6875 C-6.1875 2.6875 -6.1875 2.6875 -5.0625 1 C-3.1875 -0.3125 -3.1875 -0.3125 0 0 Z " fill="#0F4A95" transform="translate(335.1875,424.3125)"/>
<path d="M0 0 C0.33 0 0.66 0 1 0 C1 2.31 1 4.62 1 7 C-0.98 7.99 -0.98 7.99 -3 9 C-2.44271087 5.65626525 -1.64826111 2.96687001 0 0 Z " fill="#114386" transform="translate(278,386)"/>
<path d="M0 0 C2 3 2 3 1.7578125 5.26171875 C1.54898438 6.06222656 1.34015625 6.86273438 1.125 7.6875 C0.92132813 8.49574219 0.71765625 9.30398438 0.5078125 10.13671875 C0.25644531 11.05904297 0.25644531 11.05904297 0 12 C-0.66 12 -1.32 12 -2 12 C-1 3.42857143 -1 3.42857143 0 0 Z " fill="#F7DF79" transform="translate(117,276)"/>
<path d="M0 0 C0.33 0.99 0.66 1.98 1 3 C0.67 3.66 0.34 4.32 0 5 C-3.63 4.67 -7.26 4.34 -11 4 C-11 3.67 -11 3.34 -11 3 C-5.555 2.505 -5.555 2.505 0 2 C0 1.34 0 0.68 0 0 Z " fill="#396378" transform="translate(169,140)"/>
<path d="M0 0 C2.475 0.495 2.475 0.495 5 1 C5.66 3.31 6.32 5.62 7 8 C6.01 8.495 6.01 8.495 5 9 C5 7.02 5 5.04 5 3 C3.35 2.67 1.7 2.34 0 2 C0 1.34 0 0.68 0 0 Z " fill="#114B9F" transform="translate(340,356)"/>
<path d="M0 0 C1.41687119 4.25061356 0.19320039 6.71851625 -1 11 C-1.33 11 -1.66 11 -2 11 C-2 7.7 -2 4.4 -2 1 C-1.34 0.67 -0.68 0.34 0 0 Z " fill="#F9E08A" transform="translate(133,279)"/>
<path d="M0 0 C0.33 0 0.66 0 1 0 C1.36923077 6.4 1.36923077 6.4 -0.5 9.4375 C-0.995 9.953125 -1.49 10.46875 -2 11 C-2.66 10.67 -3.32 10.34 -4 10 C-2.68 6.7 -1.36 3.4 0 0 Z " fill="#15478E" transform="translate(248,181)"/>
<path d="M0 0 C1.65 0 3.3 0 5 0 C5 0.66 5 1.32 5 2 C5.99 2.33 6.98 2.66 8 3 C7.34 3.66 6.68 4.32 6 5 C5.01 5 4.02 5 3 5 C3 3.68 3 2.36 3 1 C2.01 0.67 1.02 0.34 0 0 Z " fill="#F6DA6A" transform="translate(287,132)"/>
<path d="M0 0 C1.32 0.33 2.64 0.66 4 1 C4 1.99 4 2.98 4 4 C6.31 4 8.62 4 11 4 C11 4.33 11 4.66 11 5 C3.5340751 5.36717663 3.5340751 5.36717663 1 3.625 C0 2 0 2 0 0 Z " fill="#194787" transform="translate(310,382)"/>
<path d="M0 0 C0.99 0.103125 1.98 0.20625 3 0.3125 C3.66 1.3025 4.32 2.2925 5 3.3125 C1.7 2.9825 -1.6 2.6525 -5 2.3125 C-3 0.3125 -3 0.3125 0 0 Z " fill="#14458C" transform="translate(273,382.6875)"/>
<path d="M0 0 C0.6875 1.625 0.6875 1.625 1 4 C-0.4375 7.25 -0.4375 7.25 -2 10 C-2.33 10 -2.66 10 -3 10 C-3 8.02 -3 6.04 -3 4 C-2.34 3.67 -1.68 3.34 -1 3 C-0.67 2.01 -0.34 1.02 0 0 Z " fill="#164A91" transform="translate(382,375)"/>
<path d="M0 0 C0.185625 0.9590625 0.185625 0.9590625 0.375 1.9375 C0.684375 2.9584375 0.684375 2.9584375 1 4 C1.66 4.33 2.32 4.66 3 5 C2.01 5.66 1.02 6.32 0 7 C-0.66 7.99 -1.32 8.98 -2 10 C-1.125 2.25 -1.125 2.25 0 0 Z " fill="#0E448D" transform="translate(282,368)"/>
<path d="M0 0 C0.99 0.33 1.98 0.66 3 1 C2.34 2.65 1.68 4.3 1 6 C0.01 5.67 -0.98 5.34 -2 5 C-1.34 3.35 -0.68 1.7 0 0 Z " fill="#0C49A2" transform="translate(400,365)"/>
<path d="M0 0 C0.99 1.32 1.98 2.64 3 4 C1.35 4.33 -0.3 4.66 -2 5 C-2 5.66 -2 6.32 -2 7 C-2.66 7 -3.32 7 -4 7 C-2.92598892 4.08482708 -2.22189824 2.22189824 0 0 Z " fill="#0E4492" transform="translate(315,362)"/>
<path d="M0 0 C1.32 0 2.64 0 4 0 C4 0.66 4 1.32 4 2 C4.9590625 2.1546875 4.9590625 2.1546875 5.9375 2.3125 C6.618125 2.539375 7.29875 2.76625 8 3 C8.33 3.99 8.66 4.98 9 6 C5.56404834 4.47291037 2.88087546 2.40072955 0 0 Z " fill="#F4E287" transform="translate(81,205)"/>
<path d="M0 0 C-2.35438733 1.42944945 -3.48032433 2.08661261 -6.25 1.625 C-6.8275 1.41875 -7.405 1.2125 -8 1 C-8 0.34 -8 -0.32 -8 -1 C-3.375 -2.25 -3.375 -2.25 0 0 Z " fill="#ECE397" transform="translate(315,129)"/>
<path d="M0 0 C1.98 0.99 3.96 1.98 6 3 C6 3.66 6 4.32 6 5 C4.35 5 2.7 5 1 5 C0.67 3.35 0.34 1.7 0 0 Z " fill="#0544AE" transform="translate(205,111)"/>
<path d="M0 0 C0 0.99 0 1.98 0 3 C-1.8125 3.6875 -1.8125 3.6875 -4 4 C-5.75 2.5625 -5.75 2.5625 -7 1 C-4.50935112 0.31292445 -2.62113708 0 0 0 Z " fill="#5670EC" transform="translate(199,364)"/>
<path d="M0 0 C0.66 0.33 1.32 0.66 2 1 C1.34 2.98 0.68 4.96 0 7 C-0.66 6.67 -1.32 6.34 -2 6 C-2 4.35 -2 2.7 -2 1 C-1.34 0.67 -0.68 0.34 0 0 Z " fill="#0D4B9D" transform="translate(118,190)"/>
<path d="M0 0 C0.66 0 1.32 0 2 0 C2.28875 0.639375 2.5775 1.27875 2.875 1.9375 C3.82823451 4.15206079 3.82823451 4.15206079 6 5 C5.67 5.66 5.34 6.32 5 7 C2.69 5.35 0.38 3.7 -2 2 C-1.34 1.34 -0.68 0.68 0 0 Z " fill="#F8E07F" transform="translate(58,186)"/>
<path d="" fill="#606080" transform="translate(0,0)"/>
</svg>
